<svg width="31" height="30" viewBox="0 0 31 30" fill="none" xmlns="http://www.w3.org/2000/svg">
<path opacity="0.75" fill-rule="evenodd" clip-rule="evenodd" d="M15.5 30C23.7843 30 30.5 23.2843 30.5 15C30.5 6.71573 23.7843 0 15.5 0C7.21573 0 0.5 6.71573 0.5 15C0.5 23.2843 7.21573 30 15.5 30ZM19.3959 9.78V6H14.9273C12.9575 6 11.0683 6.81167 9.67542 8.25645C8.28252 9.70123 7.5 11.6608 7.5 13.704V24H23.5V13.047L19.3959 9.78ZM21.7646 22.2H19.4696V12.093L21.782 13.9335L21.7646 22.2ZM12.1334 16.1025H15.6388V17.9025H12.1334V16.1025ZM12.1334 12.4215H15.6388V14.2215H12.1334V12.4215Z" fill="white"/>
</svg>
