<svg width="77" height="45" viewBox="0 0 77 45" fill="none" xmlns="http://www.w3.org/2000/svg">
<g filter="url(#filter0_i_450_6005)">
<path d="M72.5 30L48.5 45V30H72.5Z" fill="url(#paint0_radial_450_6005)"/>
</g>
<g filter="url(#filter1_b_450_6005)">
<rect x="0.5" width="76" height="30" rx="4" fill="url(#paint1_radial_450_6005)"/>
</g>
<path d="M24.377 20H31.2949V17.7031H27.2754V10.1357H24.377V20ZM32.8398 20H35.6426V12.3164H32.8398V20ZM34.2412 11.4277C34.6331 11.4277 34.9681 11.2933 35.2461 11.0244C35.5286 10.751 35.6699 10.4206 35.6699 10.0332C35.6699 9.64128 35.5286 9.31087 35.2461 9.04199C34.9681 8.76855 34.6331 8.63184 34.2412 8.63184C33.8538 8.63184 33.5189 8.76855 33.2363 9.04199C32.9538 9.31087 32.8125 9.64128 32.8125 10.0332C32.8125 10.4206 32.9538 10.751 33.2363 11.0244C33.5189 11.2933 33.8538 11.4277 34.2412 11.4277ZM39.2725 20H42.5537L45.0283 12.3164H42.0957L41.0225 17.5664H40.8857L39.7852 12.3164H36.7637L39.2725 20ZM49.4238 20.1914C50.0892 20.1914 50.6497 20.1071 51.1055 19.9385C51.5658 19.7699 51.9395 19.5579 52.2266 19.3027C52.5137 19.043 52.7324 18.7741 52.8828 18.4961C53.0332 18.2135 53.1335 17.9629 53.1836 17.7441L53.2041 17.6553L50.6748 17.6621L50.6611 17.6826C50.6338 17.7236 50.5745 17.792 50.4834 17.8877C50.3923 17.9788 50.2646 18.0654 50.1006 18.1475C49.9365 18.2249 49.7292 18.2637 49.4785 18.2637C49.2051 18.2637 48.9704 18.2044 48.7744 18.0859C48.583 17.9629 48.4349 17.7874 48.3301 17.5596C48.2298 17.3271 48.1797 17.0492 48.1797 16.7256V15.5908C48.1797 15.2673 48.2298 14.9915 48.3301 14.7637C48.4349 14.5312 48.5785 14.3558 48.7607 14.2373C48.9476 14.1143 49.1641 14.0527 49.4102 14.0527C49.6608 14.0527 49.8773 14.1143 50.0596 14.2373C50.2419 14.3558 50.3831 14.5312 50.4834 14.7637C50.5882 14.9915 50.6406 15.2673 50.6406 15.5908V16.7119L51.9258 15.2148H46.8193V16.7666H53.2383V15.9941C53.2383 15.2057 53.0788 14.5221 52.7598 13.9434C52.4408 13.3646 51.9873 12.918 51.3994 12.6035C50.8161 12.2845 50.1279 12.125 49.335 12.125C48.5374 12.125 47.847 12.2868 47.2637 12.6104C46.6849 12.9294 46.236 13.3896 45.917 13.9912C45.598 14.5928 45.4385 15.3128 45.4385 16.1514V16.1582C45.4385 16.9967 45.598 17.7168 45.917 18.3184C46.2406 18.9199 46.6986 19.3825 47.291 19.7061C47.888 20.0296 48.599 20.1914 49.4238 20.1914Z" fill="black"/>
<defs>
<filter id="filter0_i_450_6005" x="48.5" y="30" width="24" height="17.5632" filterUnits="userSpaceOnUse" color-interpolation-filters="sRGB">
<feFlood flood-opacity="0" result="BackgroundImageFix"/>
<feBlend mode="normal" in="SourceGraphic" in2="BackgroundImageFix" result="shape"/>
<feColorMatrix in="SourceAlpha" type="matrix" values="0 0 0 0 0 0 0 0 0 0 0 0 0 0 0 0 0 0 127 0" result="hardAlpha"/>
<feOffset dy="2.56317"/>
<feGaussianBlur stdDeviation="1.28158"/>
<feComposite in2="hardAlpha" operator="arithmetic" k2="-1" k3="1"/>
<feColorMatrix type="matrix" values="0 0 0 0 0 0 0 0 0 0 0 0 0 0 0 0 0 0 0.25 0"/>
<feBlend mode="normal" in2="shape" result="effect1_innerShadow_450_6005"/>
</filter>
<filter id="filter1_b_450_6005" x="-2.06317" y="-2.56317" width="81.1263" height="35.1263" filterUnits="userSpaceOnUse" color-interpolation-filters="sRGB">
<feFlood flood-opacity="0" result="BackgroundImageFix"/>
<feGaussianBlur in="BackgroundImage" stdDeviation="1.28158"/>
<feComposite in2="SourceAlpha" operator="in" result="effect1_backgroundBlur_450_6005"/>
<feBlend mode="normal" in="SourceGraphic" in2="effect1_backgroundBlur_450_6005" result="shape"/>
</filter>
<radialGradient id="paint0_radial_450_6005" cx="0" cy="0" r="1" gradientUnits="userSpaceOnUse" gradientTransform="translate(92.2931 29.1429) rotate(176.185) scale(64.4049 96.5259)">
<stop stop-color="#72FFF9"/>
<stop offset="0.234375" stop-color="#FAFFDA"/>
<stop offset="0.378148" stop-color="#9DD9FB"/>
<stop offset="0.461432" stop-color="#A0FAEA"/>
<stop offset="0.544715" stop-color="#9AA6FF"/>
<stop offset="0.635417" stop-color="#B4D7E6"/>
<stop offset="0.755208" stop-color="#FCCDB9"/>
<stop offset="0.848958" stop-color="#CFF4FF"/>
<stop offset="0.921875" stop-color="#FAFFED"/>
<stop offset="1" stop-color="#40D1FF"/>
</radialGradient>
<radialGradient id="paint1_radial_450_6005" cx="0" cy="0" r="1" gradientUnits="userSpaceOnUse" gradientTransform="translate(33.4129 61.0652) rotate(-35.0658) scale(73.9877 116.671)">
<stop stop-color="#72FFF9"/>
<stop offset="0.234375" stop-color="#FAFFDA"/>
<stop offset="0.378148" stop-color="#9DD9FB"/>
<stop offset="0.461432" stop-color="#A0FAEA"/>
<stop offset="0.544715" stop-color="#9AA6FF"/>
<stop offset="0.635417" stop-color="#B4D7E6"/>
<stop offset="0.755208" stop-color="#FCCDB9"/>
<stop offset="0.848958" stop-color="#CFF4FF"/>
<stop offset="0.921875" stop-color="#FAFFED"/>
<stop offset="1" stop-color="#40D1FF"/>
</radialGradient>
</defs>
</svg>
