<svg width="77" height="45" viewBox="0 0 77 45" fill="none" xmlns="http://www.w3.org/2000/svg">
<g filter="url(#filter0_b_450_4564)">
<path d="M72.5 30L48.5 45V30H72.5Z" fill="url(#paint0_linear_450_4564)"/>
</g>
<g filter="url(#filter1_b_450_4564)">
<rect x="0.5" width="76" height="30" rx="4" fill="url(#paint1_linear_450_4564)"/>
</g>
<path d="M13.1865 20H16.085V16.6914H16.9053C16.9281 16.6914 16.9508 16.6914 16.9736 16.6914C16.9964 16.6914 17.0169 16.6914 17.0352 16.6914L18.5938 20H21.834L19.9609 16.2607C20.4714 16.0146 20.8633 15.6387 21.1367 15.1328C21.4102 14.6224 21.5469 14.0778 21.5469 13.499V13.4854C21.5469 12.779 21.3988 12.1774 21.1025 11.6807C20.8109 11.1794 20.3757 10.7965 19.7969 10.5322C19.2181 10.2679 18.4958 10.1357 17.6299 10.1357H13.1865V20ZM16.085 14.7773V12.2754H17.2949C17.6914 12.2754 18.0059 12.3916 18.2383 12.624C18.4753 12.8564 18.5938 13.1549 18.5938 13.5195V13.5332C18.5938 13.9069 18.4753 14.2077 18.2383 14.4355C18.0059 14.6634 17.6914 14.7773 17.2949 14.7773H16.085ZM26.5713 20.1914C27.2367 20.1914 27.7972 20.1071 28.2529 19.9385C28.7132 19.7699 29.0869 19.5579 29.374 19.3027C29.6611 19.043 29.8799 18.7741 30.0303 18.4961C30.1807 18.2135 30.2809 17.9629 30.3311 17.7441L30.3516 17.6553L27.8223 17.6621L27.8086 17.6826C27.7812 17.7236 27.722 17.792 27.6309 17.8877C27.5397 17.9788 27.4121 18.0654 27.248 18.1475C27.084 18.2249 26.8766 18.2637 26.626 18.2637C26.3525 18.2637 26.1178 18.2044 25.9219 18.0859C25.7305 17.9629 25.5824 17.7874 25.4775 17.5596C25.3773 17.3271 25.3271 17.0492 25.3271 16.7256V15.5908C25.3271 15.2673 25.3773 14.9915 25.4775 14.7637C25.5824 14.5312 25.7259 14.3558 25.9082 14.2373C26.0951 14.1143 26.3115 14.0527 26.5576 14.0527C26.8083 14.0527 27.0247 14.1143 27.207 14.2373C27.3893 14.3558 27.5306 14.5312 27.6309 14.7637C27.7357 14.9915 27.7881 15.2673 27.7881 15.5908V16.7119L29.0732 15.2148H23.9668V16.7666H30.3857V15.9941C30.3857 15.2057 30.2262 14.5221 29.9072 13.9434C29.5882 13.3646 29.1348 12.918 28.5469 12.6035C27.9635 12.2845 27.2754 12.125 26.4824 12.125C25.6849 12.125 24.9945 12.2868 24.4111 12.6104C23.8324 12.9294 23.3835 13.3896 23.0645 13.9912C22.7454 14.5928 22.5859 15.3128 22.5859 16.1514V16.1582C22.5859 16.9967 22.7454 17.7168 23.0645 18.3184C23.388 18.9199 23.846 19.3825 24.4385 19.7061C25.0355 20.0296 25.7464 20.1914 26.5713 20.1914ZM35.4102 20.1914C36.1302 20.1914 36.7523 20.0684 37.2764 19.8223C37.805 19.5716 38.2197 19.2139 38.5205 18.749C38.8258 18.2842 38.999 17.7282 39.04 17.0811L39.0332 17.0674L36.5107 17.0742H36.4971C36.4606 17.4251 36.3535 17.6872 36.1758 17.8604C36.0026 18.029 35.7542 18.1133 35.4307 18.1133C35.1572 18.1133 34.9339 18.0449 34.7607 17.9082C34.5921 17.7715 34.4668 17.5596 34.3848 17.2725C34.3027 16.9808 34.2617 16.6094 34.2617 16.1582V16.1445C34.2617 15.6934 34.3027 15.3265 34.3848 15.0439C34.4668 14.7568 34.5921 14.5449 34.7607 14.4082C34.9339 14.2715 35.1572 14.2031 35.4307 14.2031C35.7542 14.2031 36.0026 14.2965 36.1758 14.4834C36.3535 14.6657 36.4629 14.9391 36.5039 15.3037L36.5107 15.3105H39.0332H39.0469C39.0013 14.627 38.8304 14.0482 38.5342 13.5742C38.238 13.1003 37.8255 12.7402 37.2969 12.4941C36.7728 12.248 36.1439 12.125 35.4102 12.125C34.5306 12.125 33.7946 12.2754 33.2021 12.5762C32.6097 12.877 32.1631 13.3258 31.8623 13.9229C31.5661 14.5153 31.418 15.2559 31.418 16.1445V16.1582C31.418 17.0469 31.5661 17.792 31.8623 18.3936C32.1631 18.9906 32.6097 19.4395 33.2021 19.7402C33.7946 20.041 34.5306 20.1914 35.4102 20.1914ZM44.0576 20.1914C44.9053 20.1914 45.6299 20.0319 46.2314 19.7129C46.833 19.3939 47.291 18.9336 47.6055 18.332C47.9245 17.7305 48.084 17.0059 48.084 16.1582V16.1445C48.084 15.3105 47.9222 14.5951 47.5986 13.998C47.2751 13.3965 46.8125 12.9339 46.2109 12.6104C45.6094 12.2868 44.8916 12.125 44.0576 12.125C43.2282 12.125 42.5127 12.2891 41.9111 12.6172C41.3096 12.9408 40.8447 13.4033 40.5166 14.0049C40.193 14.6019 40.0312 15.3151 40.0312 16.1445V16.1582C40.0312 17.0059 40.1908 17.7305 40.5098 18.332C40.8288 18.9336 41.2891 19.3939 41.8906 19.7129C42.4922 20.0319 43.2145 20.1914 44.0576 20.1914ZM44.0576 18.1133C43.8161 18.1133 43.6087 18.0381 43.4355 17.8877C43.2624 17.7327 43.1302 17.5094 43.0391 17.2178C42.9479 16.9261 42.9023 16.5752 42.9023 16.165V16.1514C42.9023 15.7503 42.9479 15.4062 43.0391 15.1191C43.1348 14.8275 43.2692 14.6019 43.4424 14.4424C43.6156 14.2829 43.8206 14.2031 44.0576 14.2031C44.2992 14.2031 44.5042 14.2829 44.6729 14.4424C44.846 14.6019 44.9782 14.8275 45.0693 15.1191C45.165 15.4062 45.2129 15.7503 45.2129 16.1514V16.165C45.2129 16.5706 45.1673 16.9193 45.0762 17.2109C44.985 17.5026 44.8529 17.7259 44.6797 17.8809C44.5111 18.0358 44.3037 18.1133 44.0576 18.1133ZM49.4854 20H52.2881V16.1445C52.2881 15.7936 52.3542 15.4974 52.4863 15.2559C52.623 15.0143 52.8213 14.832 53.0811 14.709C53.3454 14.5814 53.6667 14.5176 54.0449 14.5176C54.2272 14.5176 54.4118 14.5312 54.5986 14.5586C54.79 14.5859 54.9723 14.6247 55.1455 14.6748V12.3506C55.0088 12.3005 54.8652 12.264 54.7148 12.2412C54.5645 12.2184 54.4095 12.207 54.25 12.207C53.7715 12.207 53.3727 12.3255 53.0537 12.5625C52.7347 12.7995 52.5251 13.1344 52.4248 13.5674H52.2881V12.3164H49.4854V20ZM58.8438 20.1094C59.3952 20.1094 59.86 20 60.2383 19.7812C60.6165 19.5579 60.8877 19.2458 61.0518 18.8447H61.1885V20H63.9912V9.48633H61.1885V13.5605H61.0518C60.874 13.1322 60.5938 12.7995 60.2109 12.5625C59.8281 12.3255 59.3724 12.207 58.8438 12.207C58.1966 12.207 57.6475 12.3597 57.1963 12.665C56.7497 12.9704 56.4079 13.417 56.1709 14.0049C55.9385 14.5928 55.8223 15.3083 55.8223 16.1514V16.165C55.8223 16.999 55.943 17.71 56.1846 18.2979C56.4261 18.8857 56.7725 19.3346 57.2236 19.6445C57.6748 19.9544 58.2148 20.1094 58.8438 20.1094ZM59.9307 17.8535C59.6755 17.8535 59.4521 17.7874 59.2607 17.6553C59.0739 17.5186 58.9281 17.3249 58.8232 17.0742C58.7184 16.819 58.666 16.516 58.666 16.165V16.1514C58.666 15.805 58.7184 15.5065 58.8232 15.2559C58.9281 15.0007 59.0762 14.8047 59.2676 14.668C59.459 14.5312 59.68 14.4629 59.9307 14.4629C60.1859 14.4629 60.4069 14.5312 60.5938 14.668C60.7852 14.8001 60.9333 14.9938 61.0381 15.249C61.1475 15.4997 61.2021 15.8027 61.2021 16.1582V16.1719C61.2021 16.5228 61.1497 16.8258 61.0449 17.0811C60.9401 17.3317 60.792 17.5231 60.6006 17.6553C60.4137 17.7874 60.1904 17.8535 59.9307 17.8535Z" fill="white"/>
<defs>
<filter id="filter0_b_450_4564" x="45.9368" y="27.4368" width="29.1263" height="20.1263" filterUnits="userSpaceOnUse" color-interpolation-filters="sRGB">
<feFlood flood-opacity="0" result="BackgroundImageFix"/>
<feGaussianBlur in="BackgroundImage" stdDeviation="1.28158"/>
<feComposite in2="SourceAlpha" operator="in" result="effect1_backgroundBlur_450_4564"/>
<feBlend mode="normal" in="SourceGraphic" in2="effect1_backgroundBlur_450_4564" result="shape"/>
</filter>
<filter id="filter1_b_450_4564" x="-2.06317" y="-2.56317" width="81.1263" height="35.1263" filterUnits="userSpaceOnUse" color-interpolation-filters="sRGB">
<feFlood flood-opacity="0" result="BackgroundImageFix"/>
<feGaussianBlur in="BackgroundImage" stdDeviation="1.28158"/>
<feComposite in2="SourceAlpha" operator="in" result="effect1_backgroundBlur_450_4564"/>
<feBlend mode="normal" in="SourceGraphic" in2="effect1_backgroundBlur_450_4564" result="shape"/>
</filter>
<linearGradient id="paint0_linear_450_4564" x1="71.7656" y1="45" x2="54.7083" y2="45.0903" gradientUnits="userSpaceOnUse">
<stop stop-color="#B43390"/>
<stop offset="1" stop-color="#2D55BC"/>
</linearGradient>
<linearGradient id="paint1_linear_450_4564" x1="2.82563" y1="30" x2="56.838" y2="30.4529" gradientUnits="userSpaceOnUse">
<stop stop-color="#FF4DCD"/>
<stop offset="1" stop-color="#4976EC"/>
</linearGradient>
</defs>
</svg>
