<svg width="18" height="18" viewBox="0 0 18 18" fill="none" xmlns="http://www.w3.org/2000/svg">
<path d="M16.8754 1.13789C16.3879 0.650391 15.6004 0.650391 15.1129 1.13789L9.00039 7.23789L2.88789 1.12539C2.40039 0.637891 1.61289 0.637891 1.12539 1.12539C0.637891 1.61289 0.637891 2.40039 1.12539 2.88789L7.23789 9.00039L1.12539 15.1129C0.637891 15.6004 0.637891 16.3879 1.12539 16.8754C1.61289 17.3629 2.40039 17.3629 2.88789 16.8754L9.00039 10.7629L15.1129 16.8754C15.6004 17.3629 16.3879 17.3629 16.8754 16.8754C17.3629 16.3879 17.3629 15.6004 16.8754 15.1129L10.7629 9.00039L16.8754 2.88789C17.3504 2.41289 17.3504 1.61289 16.8754 1.13789Z" fill="white"/>
</svg>
