<svg width="31" height="30" viewBox="0 0 31 30" fill="none" xmlns="http://www.w3.org/2000/svg">
<path opacity="0.75" fill-rule="evenodd" clip-rule="evenodd" d="M15.5 30C23.7843 30 30.5 23.2843 30.5 15C30.5 6.71573 23.7843 0 15.5 0C7.21573 0 0.5 6.71573 0.5 15C0.5 23.2843 7.21573 30 15.5 30ZM15.4989 5L15.4987 5.00028L15.4986 5L15.4982 5.0011L9.5 15.1858L9.50648 15.1897L9.5 15.1927L15.4987 18.8212V18.8212L15.4988 18.8212L15.4989 18.8213V18.8211L21.4974 15.1926L21.4909 15.1896L21.4973 15.1858L15.4989 5.00056V5ZM9.5 16.3496L15.4965 24.9967L15.4976 25.0002L15.4983 24.9993L15.4989 25.0002V24.9983L21.5 16.3496L15.4983 19.976L9.5 16.3496Z" fill="white"/>
</svg>
