<svg width="20" height="20" viewBox="0 0 20 20" fill="none" xmlns="http://www.w3.org/2000/svg">
<g opacity="0.3">
<path d="M18.0469 18.75H12.7344C12.5479 18.75 12.369 18.6759 12.2372 18.5441C12.1053 18.4122 12.0312 18.2334 12.0312 18.0469C12.0312 17.8604 12.1053 17.6816 12.2372 17.5497C12.369 17.4178 12.5479 17.3438 12.7344 17.3438H16.3494L8.17461 9.16914C8.10932 9.10384 8.05753 9.02632 8.0222 8.941C7.98687 8.85568 7.96869 8.76425 7.9687 8.6719C7.96871 8.57956 7.98691 8.48813 8.02226 8.40282C8.0576 8.31751 8.1094 8.24 8.17471 8.17471C8.24001 8.10942 8.31753 8.05763 8.40285 8.0223C8.48816 7.98697 8.5796 7.96879 8.67194 7.9688C8.76428 7.96881 8.85572 7.98701 8.94103 8.02235C9.02634 8.0577 9.10385 8.1095 9.16914 8.1748L17.3437 16.3494V12.7344C17.3437 12.5479 17.4178 12.3691 17.5497 12.2372C17.6815 12.1053 17.8604 12.0312 18.0469 12.0312C18.2334 12.0312 18.4122 12.1053 18.5441 12.2372C18.6759 12.3691 18.75 12.5479 18.75 12.7344V18.0469C18.75 18.2334 18.6759 18.4122 18.5441 18.5441C18.4122 18.6759 18.2334 18.75 18.0469 18.75Z" fill="white"/>
<path d="M18.0469 7.96875C17.8604 7.96875 17.6816 7.89467 17.5497 7.76281C17.4178 7.63095 17.3438 7.45211 17.3438 7.26562V2.65625H2.65625V17.3438H5.15625C5.34273 17.3438 5.52157 17.4178 5.65343 17.5497C5.7853 17.6816 5.85938 17.8604 5.85938 18.0469C5.85938 18.2334 5.7853 18.4122 5.65343 18.5441C5.52157 18.6759 5.34273 18.75 5.15625 18.75H1.95312C1.76664 18.75 1.5878 18.6759 1.45594 18.5441C1.32408 18.4122 1.25 18.2334 1.25 18.0469V1.95312C1.25 1.76664 1.32408 1.5878 1.45594 1.45594C1.5878 1.32408 1.76664 1.25 1.95312 1.25H18.0469C18.2334 1.25 18.4122 1.32408 18.5441 1.45594C18.6759 1.5878 18.75 1.76664 18.75 1.95312V7.26562C18.75 7.45211 18.6759 7.63095 18.5441 7.76281C18.4122 7.89467 18.2334 7.96875 18.0469 7.96875Z" fill="white"/>
</g>
</svg>
