<svg width="844" height="280" viewBox="0 0 844 280" fill="none" xmlns="http://www.w3.org/2000/svg">
<g filter="url(#filter0_d_219_2635)">
<path d="M123.915 71.2633L101.456 141.448H76.0892L64.7595 103.949L52.8282 141.448H27.4616L5.00263 71.2633H29.3666L41.5987 111.168L54.5326 71.2633H76.2897L88.5218 111.669L101.456 71.2633H123.915ZM187.522 123.601V141.448H129.169V71.2633H186.219V89.1101H152.43V97.3317H182.108V114.376H152.43V123.601H187.522ZM252.779 104.751C256.923 106.289 260.131 108.528 262.404 111.469C264.677 114.41 265.813 117.953 265.813 122.097C265.813 128.246 263.273 133.025 258.193 136.434C253.113 139.776 245.76 141.448 236.135 141.448H196.631V71.2633H234.13C243.488 71.2633 250.54 72.9343 255.285 76.2765C260.098 79.6186 262.504 84.0636 262.504 89.6115C262.504 92.8867 261.669 95.8278 259.998 98.4346C258.393 101.041 255.987 103.147 252.779 104.751ZM219.892 87.8067V98.2341H230.921C236.068 98.2341 238.642 96.4962 238.642 93.0204C238.642 89.5446 236.068 87.8067 230.921 87.8067H219.892ZM234.13 124.904C239.343 124.904 241.95 123.066 241.95 119.39C241.95 115.713 239.343 113.875 234.13 113.875H219.892V124.904H234.13ZM340.834 99.0362C346.248 100.373 350.393 102.813 353.267 106.355C356.208 109.831 357.678 114.042 357.678 118.989C357.678 123.2 356.509 127.143 354.169 130.82C351.896 134.429 348.354 137.37 343.541 139.643C338.729 141.915 332.746 143.052 325.594 143.052C320.648 143.052 315.701 142.517 310.755 141.448C305.876 140.378 301.598 138.807 297.921 136.735L305.943 119.289C308.817 120.96 311.891 122.23 315.167 123.099C318.509 123.968 321.717 124.403 324.792 124.403C327.533 124.403 329.738 123.935 331.409 122.999C333.08 122.063 333.916 120.726 333.916 118.989C333.916 115.78 331.142 114.176 325.594 114.176H316.27V99.6378L326.597 89.1101H301.531V71.2633H353.868V85.8015L340.834 99.0362ZM41.2533 253.517C34.8959 253.517 29.1326 252.15 23.9635 249.417C18.8538 246.625 14.8136 242.793 11.8428 237.92C8.93146 232.989 7.47579 227.434 7.47579 221.255C7.47579 215.075 8.93146 209.55 11.8428 204.678C14.8136 199.746 18.8538 195.914 23.9635 193.181C29.1326 190.388 34.9256 188.992 41.3425 188.992C46.7492 188.992 51.6213 189.943 55.9586 191.844C60.3553 193.745 64.0391 196.478 67.0098 200.043L57.7411 208.599C53.5226 203.727 48.294 201.291 42.0554 201.291C38.1935 201.291 34.7474 202.153 31.7172 203.876C28.687 205.539 26.3104 207.886 24.5874 210.916C22.9237 213.946 22.0919 217.393 22.0919 221.255C22.0919 225.117 22.9237 228.563 24.5874 231.593C26.3104 234.623 28.687 237 31.7172 238.723C34.7474 240.386 38.1935 241.218 42.0554 241.218C48.294 241.218 53.5226 238.752 57.7411 233.821L67.0098 242.377C64.0391 246.001 60.3553 248.764 55.9586 250.665C51.5619 252.566 46.6601 253.517 41.2533 253.517ZM96.9412 253.16C91.8909 253.16 87.3456 252.121 83.3054 250.041C79.3246 247.902 76.2053 244.961 73.9475 241.218C71.6897 237.475 70.5608 233.227 70.5608 228.473C70.5608 223.72 71.6897 219.472 73.9475 215.729C76.2053 211.986 79.3246 209.074 83.3054 206.995C87.3456 204.856 91.8909 203.786 96.9412 203.786C101.991 203.786 106.507 204.856 110.488 206.995C114.469 209.074 117.588 211.986 119.846 215.729C122.104 219.472 123.232 223.72 123.232 228.473C123.232 233.227 122.104 237.475 119.846 241.218C117.588 244.961 114.469 247.902 110.488 250.041C106.507 252.121 101.991 253.16 96.9412 253.16ZM96.9412 241.753C100.506 241.753 103.417 240.564 105.675 238.188C107.992 235.752 109.151 232.514 109.151 228.473C109.151 224.433 107.992 221.225 105.675 218.848C103.417 216.412 100.506 215.194 96.9412 215.194C93.3763 215.194 90.4352 216.412 88.118 218.848C85.8008 221.225 84.6422 224.433 84.6422 228.473C84.6422 232.514 85.8008 235.752 88.118 238.188C90.4352 240.564 93.3763 241.753 96.9412 241.753ZM161.669 203.786C167.61 203.786 172.393 205.569 176.017 209.134C179.701 212.699 181.543 217.987 181.543 224.998V252.448H167.64V227.137C167.64 223.334 166.808 220.512 165.144 218.67C163.481 216.769 161.075 215.818 157.926 215.818C154.42 215.818 151.628 216.917 149.548 219.116C147.468 221.255 146.429 224.463 146.429 228.741V252.448H132.526V204.499H145.805V210.114C147.647 208.094 149.934 206.549 152.667 205.48C155.4 204.351 158.401 203.786 161.669 203.786ZM209.386 205.569H221.685V216.264H209.742V252.448H195.839V216.264H188.442V205.569H195.839V203.43C195.839 197.964 197.443 193.626 200.652 190.418C203.919 187.21 208.494 185.605 214.376 185.605C216.456 185.605 218.417 185.843 220.259 186.318C222.16 186.734 223.734 187.358 224.982 188.19L221.328 198.261C219.724 197.132 217.852 196.568 215.713 196.568C211.495 196.568 209.386 198.885 209.386 203.519V205.569ZM274.97 228.652C274.97 228.83 274.88 230.078 274.702 232.395H238.429C239.083 235.366 240.628 237.713 243.064 239.436C245.5 241.159 248.53 242.02 252.154 242.02C254.65 242.02 256.848 241.664 258.749 240.951C260.71 240.178 262.522 238.99 264.186 237.386L271.583 245.407C267.067 250.576 260.472 253.16 251.798 253.16C246.391 253.16 241.608 252.121 237.449 250.041C233.29 247.902 230.081 244.961 227.824 241.218C225.566 237.475 224.437 233.227 224.437 228.473C224.437 223.78 225.536 219.561 227.734 215.818C229.992 212.015 233.052 209.074 236.914 206.995C240.836 204.856 245.203 203.786 250.015 203.786C254.709 203.786 258.957 204.797 262.76 206.817C266.562 208.837 269.533 211.748 271.672 215.551C273.87 219.294 274.97 223.661 274.97 228.652ZM250.104 214.303C246.955 214.303 244.311 215.194 242.172 216.977C240.033 218.759 238.726 221.195 238.251 224.285H261.869C261.393 221.255 260.086 218.848 257.947 217.066C255.808 215.224 253.194 214.303 250.104 214.303ZM297.505 210.827C299.169 208.51 301.397 206.757 304.189 205.569C307.041 204.381 310.309 203.786 313.993 203.786V216.62C312.448 216.501 311.408 216.442 310.874 216.442C306.893 216.442 303.773 217.571 301.516 219.829C299.258 222.027 298.129 225.354 298.129 229.81V252.448H284.226V204.499H297.505V210.827ZM368.792 228.652C368.792 228.83 368.703 230.078 368.525 232.395H332.252C332.905 235.366 334.45 237.713 336.886 239.436C339.322 241.159 342.352 242.02 345.977 242.02C348.472 242.02 350.671 241.664 352.572 240.951C354.533 240.178 356.345 238.99 358.008 237.386L365.406 245.407C360.89 250.576 354.295 253.16 345.62 253.16C340.213 253.16 335.431 252.121 331.271 250.041C327.112 247.902 323.904 244.961 321.646 241.218C319.388 237.475 318.26 233.227 318.26 228.473C318.26 223.78 319.359 219.561 321.557 215.818C323.815 212.015 326.875 209.074 330.737 206.995C334.658 204.856 339.025 203.786 343.838 203.786C348.532 203.786 352.78 204.797 356.582 206.817C360.385 208.837 363.356 211.748 365.495 215.551C367.693 219.294 368.792 223.661 368.792 228.652ZM343.927 214.303C340.778 214.303 338.134 215.194 335.995 216.977C333.856 218.759 332.549 221.195 332.074 224.285H355.691C355.216 221.255 353.909 218.848 351.77 217.066C349.631 215.224 347.017 214.303 343.927 214.303ZM407.192 203.786C413.133 203.786 417.916 205.569 421.54 209.134C425.224 212.699 427.066 217.987 427.066 224.998V252.448H413.163V227.137C413.163 223.334 412.331 220.512 410.667 218.67C409.004 216.769 406.597 215.818 403.448 215.818C399.943 215.818 397.15 216.917 395.071 219.116C392.991 221.255 391.952 224.463 391.952 228.741V252.448H378.048V204.499H391.328V210.114C393.17 208.094 395.457 206.549 398.19 205.48C400.923 204.351 403.924 203.786 407.192 203.786ZM463.363 253.16C458.253 253.16 453.648 252.121 449.549 250.041C445.508 247.902 442.33 244.961 440.012 241.218C437.755 237.475 436.626 233.227 436.626 228.473C436.626 223.72 437.755 219.472 440.012 215.729C442.33 211.986 445.508 209.074 449.549 206.995C453.648 204.856 458.253 203.786 463.363 203.786C468.413 203.786 472.81 204.856 476.553 206.995C480.355 209.074 483.118 212.075 484.841 215.996L474.057 221.789C471.562 217.393 467.967 215.194 463.274 215.194C459.649 215.194 456.649 216.382 454.272 218.759C451.896 221.136 450.707 224.374 450.707 228.473C450.707 232.573 451.896 235.811 454.272 238.188C456.649 240.564 459.649 241.753 463.274 241.753C468.027 241.753 471.621 239.554 474.057 235.158L484.841 241.04C483.118 244.842 480.355 247.813 476.553 249.952C472.81 252.091 468.413 253.16 463.363 253.16ZM539.205 228.652C539.205 228.83 539.116 230.078 538.937 232.395H502.664C503.318 235.366 504.863 237.713 507.299 239.436C509.735 241.159 512.765 242.02 516.389 242.02C518.885 242.02 521.083 241.664 522.984 240.951C524.945 240.178 526.757 238.99 528.421 237.386L535.818 245.407C531.303 250.576 524.707 253.16 516.033 253.16C510.626 253.16 505.843 252.121 501.684 250.041C497.525 247.902 494.317 244.961 492.059 241.218C489.801 237.475 488.672 233.227 488.672 228.473C488.672 223.78 489.771 219.561 491.97 215.818C494.227 212.015 497.287 209.074 501.149 206.995C505.071 204.856 509.438 203.786 514.25 203.786C518.944 203.786 523.192 204.797 526.995 206.817C530.798 208.837 533.768 211.748 535.907 215.551C538.106 219.294 539.205 223.661 539.205 228.652ZM514.339 214.303C511.19 214.303 508.547 215.194 506.408 216.977C504.269 218.759 502.961 221.195 502.486 224.285H526.104C525.628 221.255 524.321 218.848 522.182 217.066C520.043 215.224 517.429 214.303 514.339 214.303ZM587.604 201.826H567.64V190.062H622.005V201.826H602.042V252.448H587.604V201.826ZM646.735 253.16C641.685 253.16 637.139 252.121 633.099 250.041C629.118 247.902 625.999 244.961 623.741 241.218C621.483 237.475 620.355 233.227 620.355 228.473C620.355 223.72 621.483 219.472 623.741 215.729C625.999 211.986 629.118 209.074 633.099 206.995C637.139 204.856 641.685 203.786 646.735 203.786C651.785 203.786 656.301 204.856 660.282 206.995C664.262 209.074 667.382 211.986 669.639 215.729C671.897 219.472 673.026 223.72 673.026 228.473C673.026 233.227 671.897 237.475 669.639 241.218C667.382 244.961 664.262 247.902 660.282 250.041C656.301 252.121 651.785 253.16 646.735 253.16ZM646.735 241.753C650.3 241.753 653.211 240.564 655.469 238.188C657.786 235.752 658.945 232.514 658.945 228.473C658.945 224.433 657.786 221.225 655.469 218.848C653.211 216.412 650.3 215.194 646.735 215.194C643.17 215.194 640.229 216.412 637.912 218.848C635.595 221.225 634.436 224.433 634.436 228.473C634.436 232.514 635.595 235.752 637.912 238.188C640.229 240.564 643.17 241.753 646.735 241.753ZM702.907 233.643L696.222 240.238V252.448H682.319V186.318H696.222V223.75L716.542 204.499H733.119L713.156 224.819L734.902 252.448H718.058L702.907 233.643ZM785.961 204.499L764.304 255.389C762.106 260.914 759.372 264.806 756.105 267.064C752.896 269.321 749.004 270.45 744.43 270.45C741.934 270.45 739.468 270.064 737.032 269.292C734.596 268.519 732.606 267.45 731.061 266.083L736.141 256.191C737.211 257.141 738.429 257.884 739.795 258.419C741.221 258.953 742.617 259.221 743.984 259.221C745.885 259.221 747.43 258.746 748.618 257.795C749.807 256.904 750.876 255.389 751.827 253.25L752.005 252.804L731.239 204.499H745.588L759.046 237.029L772.592 204.499H785.961ZM813.144 253.16C808.094 253.16 803.548 252.121 799.508 250.041C795.527 247.902 792.408 244.961 790.15 241.218C787.892 237.475 786.764 233.227 786.764 228.473C786.764 223.72 787.892 219.472 790.15 215.729C792.408 211.986 795.527 209.074 799.508 206.995C803.548 204.856 808.094 203.786 813.144 203.786C818.194 203.786 822.71 204.856 826.691 206.995C830.671 209.074 833.791 211.986 836.048 215.729C838.306 219.472 839.435 223.72 839.435 228.473C839.435 233.227 838.306 237.475 836.048 241.218C833.791 244.961 830.671 247.902 826.691 250.041C822.71 252.121 818.194 253.16 813.144 253.16ZM813.144 241.753C816.709 241.753 819.62 240.564 821.878 238.188C824.195 235.752 825.354 232.514 825.354 228.473C825.354 224.433 824.195 221.225 821.878 218.848C819.62 216.412 816.709 215.194 813.144 215.194C809.579 215.194 806.638 216.412 804.321 218.848C802.004 221.225 800.845 224.433 800.845 228.473C800.845 232.514 802.004 235.752 804.321 238.188C806.638 240.564 809.579 241.753 813.144 241.753Z" fill="url(#paint0_linear_219_2635)" shape-rendering="crispEdges"/>
</g>
<path fill-rule="evenodd" clip-rule="evenodd" d="M405.944 126.896C403.968 125.491 402.665 123.325 402.339 120.904L393.282 53.5646C392.962 51.1882 393.612 48.7689 395.083 46.8532L408.871 28.9071C410.301 27.046 412.391 25.8107 414.695 25.4656L567.007 2.65031C573.092 1.73887 578.689 5.94318 579.509 12.0409L592.288 107.048C593.108 113.146 588.84 118.828 582.755 119.739L431.912 142.334C429.653 142.673 427.363 142.129 425.515 140.815L405.944 126.896ZM412.955 91.6899C416.4 91.1738 418.824 88.017 418.37 84.639C417.915 81.2609 414.755 78.9407 411.309 79.4568C407.864 79.9728 405.44 83.1296 405.894 86.5077C406.349 89.8858 409.509 92.206 412.955 91.6899Z" fill="url(#paint1_linear_219_2635)"/>
<g style="mix-blend-mode:difference">
<path fill-rule="evenodd" clip-rule="evenodd" d="M405.944 126.896C403.968 125.491 402.665 123.325 402.339 120.904L393.282 53.5646C392.962 51.1882 393.612 48.7689 395.083 46.8532L408.871 28.9071C410.301 27.046 412.391 25.8107 414.695 25.4656L569.21 2.32025C574.078 1.5911 578.556 4.95454 579.212 9.83271L592.585 109.256C593.241 114.134 589.827 118.68 584.959 119.409L431.912 142.334C429.653 142.673 427.363 142.129 425.515 140.815L405.944 126.896ZM412.955 91.6899C416.4 91.1738 418.824 88.017 418.37 84.639C417.915 81.2609 414.755 78.9407 411.309 79.4568C407.864 79.9728 405.44 83.1296 405.894 86.5077C406.349 89.8858 409.509 92.206 412.955 91.6899Z" fill="url(#paint2_angular_219_2635)"/>
</g>
<g style="mix-blend-mode:screen">
<path fill-rule="evenodd" clip-rule="evenodd" d="M405.944 126.896C403.968 125.491 402.665 123.325 402.339 120.904L393.282 53.5646C392.962 51.1882 393.612 48.7689 395.083 46.8532L408.871 28.9071C410.301 27.046 412.391 25.8107 414.695 25.4656L569.21 2.32025C574.078 1.5911 578.556 4.95454 579.212 9.83271L592.585 109.256C593.241 114.134 589.827 118.68 584.959 119.409L431.912 142.334C429.653 142.673 427.363 142.129 425.515 140.815L405.944 126.896ZM412.955 91.6899C416.4 91.1738 418.824 88.017 418.37 84.639C417.915 81.2609 414.755 78.9407 411.309 79.4568C407.864 79.9728 405.44 83.1296 405.894 86.5077C406.349 89.8858 409.509 92.206 412.955 91.6899Z" fill="url(#paint3_angular_219_2635)"/>
</g>
<g style="mix-blend-mode:screen">
<path fill-rule="evenodd" clip-rule="evenodd" d="M405.944 126.896C403.968 125.491 402.665 123.325 402.339 120.904L393.282 53.5646C392.962 51.1882 393.612 48.7689 395.083 46.8532L408.871 28.9071C410.301 27.046 412.391 25.8107 414.695 25.4656L569.21 2.32025C574.078 1.5911 578.556 4.95454 579.212 9.83271L592.585 109.256C593.241 114.134 589.827 118.68 584.959 119.409L431.912 142.334C429.653 142.673 427.363 142.129 425.515 140.815L405.944 126.896ZM412.955 91.6899C416.4 91.1738 418.824 88.017 418.37 84.639C417.915 81.2609 414.755 78.9407 411.309 79.4568C407.864 79.9728 405.44 83.1296 405.894 86.5077C406.349 89.8858 409.509 92.206 412.955 91.6899Z" fill="url(#paint4_angular_219_2635)" fill-opacity="0.5"/>
</g>
<path d="M413.169 120.104L412.465 120.973L413.169 120.104ZM428.893 132.863L428.188 133.733L428.893 132.863ZM415.418 34.5929L414.529 33.9295L415.418 34.5929ZM403.772 50.1967L404.66 50.8601L403.772 50.1967ZM405.103 70.7227C405.019 70.1132 404.458 69.6913 403.849 69.7804C403.24 69.8696 402.815 70.4359 402.899 71.0454L405.103 70.7227ZM401.111 58.0397C401.195 58.6492 401.756 59.0711 402.365 58.9819C402.974 58.8928 403.399 58.3264 403.316 57.7169L401.111 58.0397ZM403.119 56.1999C403.07 55.5863 402.533 55.1335 401.92 55.1885C401.308 55.2435 400.852 55.7854 400.901 56.399L403.119 56.1999ZM402.559 49.9933C402.217 50.5082 402.354 51.1997 402.865 51.5379C403.376 51.876 404.067 51.7327 404.409 51.2179L402.559 49.9933ZM405.492 49.7455C405.862 49.2503 405.764 48.5518 405.273 48.1855C404.782 47.8191 404.084 47.9236 403.715 48.4188L405.492 49.7455ZM413.697 35.0441C413.327 35.5393 413.426 36.2378 413.917 36.6041C414.407 36.9705 415.105 36.866 415.475 36.3708L413.697 35.0441ZM416.58 34.9101C416.977 34.4363 416.918 33.7331 416.449 33.3394C415.979 32.9458 415.277 33.0108 414.881 33.4846L416.58 34.9101ZM420.607 30.0644C420.004 30.1877 419.611 30.7769 419.729 31.3804C419.846 31.984 420.431 32.3733 421.034 32.25L420.607 30.0644ZM422.588 32.01C423.197 31.9209 423.623 31.3545 423.539 30.745C423.455 30.1354 422.894 29.7136 422.285 29.8027L422.588 32.01ZM435.741 27.8326C435.133 27.9217 434.707 28.4881 434.791 29.0976C434.875 29.7071 435.436 30.129 436.045 30.0399L435.741 27.8326ZM438.288 29.7115C438.896 29.6224 439.322 29.056 439.238 28.4465C439.154 27.837 438.593 27.4151 437.984 27.5042L438.288 29.7115ZM451.441 25.5341C450.832 25.6233 450.407 26.1896 450.49 26.7991C450.574 27.4087 451.135 27.8305 451.744 27.7414L451.441 25.5341ZM453.987 27.4131C454.596 27.3239 455.021 26.7576 454.938 26.148C454.854 25.5385 454.292 25.1167 453.684 25.2058L453.987 27.4131ZM467.14 23.2357C466.531 23.3248 466.106 23.8912 466.19 24.5007C466.273 25.1102 466.835 25.5321 467.444 25.443L467.14 23.2357ZM469.686 25.1146C470.295 25.0255 470.721 24.4591 470.637 23.8496C470.553 23.2401 469.992 22.8182 469.383 22.9073L469.686 25.1146ZM482.84 20.9372C482.231 21.0263 481.805 21.5927 481.889 22.2022C481.973 22.8118 482.534 23.2336 483.143 23.1445L482.84 20.9372ZM485.386 22.8161C485.994 22.727 486.42 22.1607 486.336 21.5511C486.253 20.9416 485.691 20.5197 485.082 20.6089L485.386 22.8161ZM498.539 18.6388C497.93 18.7279 497.505 19.2943 497.588 19.9038C497.672 20.5133 498.234 20.9352 498.842 20.846L498.539 18.6388ZM501.085 20.5177C501.694 20.4286 502.119 19.8622 502.036 19.2527C501.952 18.6432 501.39 18.2213 500.782 18.3104L501.085 20.5177ZM514.238 16.3403C513.63 16.4294 513.204 16.9958 513.288 17.6053C513.372 18.2148 513.933 18.6367 514.542 18.5476L514.238 16.3403ZM516.784 18.2192C517.393 18.1301 517.819 17.5637 517.735 16.9542C517.651 16.3447 517.09 15.9228 516.481 16.012L516.784 18.2192ZM529.938 14.0419C529.329 14.131 528.903 14.6973 528.987 15.3069C529.071 15.9164 529.632 16.3383 530.241 16.2491L529.938 14.0419ZM532.484 15.9208C533.093 15.8317 533.518 15.2653 533.434 14.6558C533.351 14.0462 532.789 13.6244 532.18 13.7135L532.484 15.9208ZM545.637 11.7434C545.028 11.8325 544.603 12.3989 544.686 13.0084C544.77 13.6179 545.332 14.0398 545.94 13.9507L545.637 11.7434ZM548.183 13.6223C548.792 13.5332 549.218 12.9668 549.134 12.3573C549.05 11.7478 548.489 11.3259 547.88 11.415L548.183 13.6223ZM561.336 9.44494C560.728 9.53406 560.302 10.1004 560.386 10.71C560.47 11.3195 561.031 11.7413 561.64 11.6522L561.336 9.44494ZM563.633 11.4093C564.248 11.3882 564.733 10.8721 564.717 10.2564C564.701 9.6408 564.19 9.15878 563.576 9.17984L563.633 11.4093ZM573.529 16.6588C573.378 16.0629 572.773 15.7064 572.177 15.8625C571.582 16.0186 571.221 16.6282 571.372 17.2241L573.529 16.6588ZM571.679 19.1081C571.763 19.7176 572.325 20.1395 572.933 20.0504C573.542 19.9613 573.968 19.3949 573.884 18.7854L571.679 19.1081ZM575.573 31.0761C575.489 30.4666 574.928 30.0447 574.319 30.1339C573.71 30.223 573.285 30.7894 573.369 31.3989L575.573 31.0761ZM573.65 33.4473C573.734 34.0569 574.295 34.4787 574.904 34.3896C575.513 34.3005 575.938 33.7341 575.855 33.1246L573.65 33.4473ZM577.544 45.4153C577.46 44.8058 576.899 44.384 576.29 44.4731C575.681 44.5622 575.256 45.1286 575.339 45.7381L577.544 45.4153ZM575.621 47.7866C575.705 48.3961 576.266 48.8179 576.875 48.7288C577.484 48.6397 577.909 48.0733 577.825 47.4638L575.621 47.7866ZM579.515 59.7546C579.431 59.145 578.869 58.7232 578.261 58.8123C577.652 58.9014 577.226 59.4678 577.31 60.0773L579.515 59.7546ZM577.592 62.1258C577.675 62.7353 578.237 63.1572 578.845 63.068C579.454 62.9789 579.88 62.4126 579.796 61.803L577.592 62.1258ZM581.485 74.0938C581.401 73.4843 580.84 73.0624 580.231 73.1515C579.623 73.2407 579.197 73.807 579.281 74.4165L581.485 74.0938ZM579.562 76.465C579.646 77.0745 580.207 77.4964 580.816 77.4073C581.425 77.3181 581.851 76.7518 581.767 76.1423L579.562 76.465ZM583.456 88.433C583.372 87.8235 582.811 87.4016 582.202 87.4908C581.593 87.5799 581.168 88.1462 581.251 88.7558L583.456 88.433ZM581.533 90.8042C581.617 91.4137 582.178 91.8356 582.787 91.7465C583.396 91.6574 583.821 91.091 583.737 90.4815L581.533 90.8042ZM585.427 102.772C585.343 102.163 584.781 101.741 584.173 101.83C583.564 101.919 583.138 102.485 583.222 103.095L585.427 102.772ZM583.434 104.993C583.45 105.609 583.961 106.091 584.575 106.07C585.189 106.049 585.674 105.532 585.659 104.917L583.434 104.993ZM578.114 114.958C578.709 114.801 579.07 114.192 578.92 113.596C578.769 113 578.164 112.643 577.568 112.8L578.114 114.958ZM575.589 113.138C574.98 113.227 574.555 113.794 574.638 114.403C574.722 115.013 575.283 115.435 575.892 115.346L575.589 113.138ZM562.452 117.313C563.061 117.224 563.487 116.658 563.403 116.048C563.319 115.439 562.758 115.017 562.149 115.106L562.452 117.313ZM559.909 115.434C559.3 115.523 558.875 116.089 558.958 116.699C559.042 117.308 559.604 117.73 560.212 117.641L559.909 115.434ZM546.772 119.609C547.381 119.52 547.807 118.953 547.723 118.344C547.639 117.734 547.078 117.312 546.469 117.402L546.772 119.609ZM544.229 117.729C543.62 117.819 543.195 118.385 543.279 118.994C543.362 119.604 543.924 120.026 544.533 119.937L544.229 117.729ZM531.093 121.904C531.701 121.815 532.127 121.249 532.043 120.639C531.959 120.03 531.398 119.608 530.789 119.697L531.093 121.904ZM528.549 120.025C527.941 120.114 527.515 120.681 527.599 121.29C527.682 121.9 528.244 122.321 528.853 122.232L528.549 120.025ZM515.413 124.2C516.022 124.111 516.447 123.545 516.363 122.935C516.28 122.325 515.718 121.904 515.109 121.993L515.413 124.2ZM512.869 122.321C512.261 122.41 511.835 122.976 511.919 123.586C512.003 124.195 512.564 124.617 513.173 124.528L512.869 122.321ZM499.733 126.496C500.342 126.406 500.767 125.84 500.683 125.231C500.6 124.621 500.038 124.199 499.43 124.288L499.733 126.496ZM497.19 124.616C496.581 124.705 496.155 125.272 496.239 125.881C496.323 126.491 496.884 126.913 497.493 126.824L497.19 124.616ZM484.053 128.791C484.662 128.702 485.087 128.136 485.004 127.526C484.92 126.917 484.358 126.495 483.75 126.584L484.053 128.791ZM481.51 126.912C480.901 127.001 480.475 127.567 480.559 128.177C480.643 128.786 481.204 129.208 481.813 129.119L481.51 126.912ZM468.373 131.087C468.982 130.998 469.408 130.431 469.324 129.822C469.24 129.212 468.679 128.79 468.07 128.88L468.373 131.087ZM465.83 129.207C465.221 129.297 464.795 129.863 464.879 130.472C464.963 131.082 465.524 131.504 466.133 131.415L465.83 129.207ZM452.693 133.382C453.302 133.293 453.728 132.727 453.644 132.117C453.56 131.508 452.999 131.086 452.39 131.175L452.693 133.382ZM450.15 131.503C449.541 131.592 449.116 132.159 449.199 132.768C449.283 133.378 449.845 133.799 450.453 133.71L450.15 131.503ZM437.013 135.678C437.622 135.589 438.048 135.023 437.964 134.413C437.88 133.803 437.319 133.382 436.71 133.471L437.013 135.678ZM435.135 133.688C434.523 133.741 434.065 134.282 434.113 134.895C434.161 135.509 434.696 135.963 435.309 135.91L435.135 133.688ZM428.654 134.088C429.152 134.446 429.847 134.328 430.208 133.826C430.568 133.324 430.457 132.628 429.96 132.271L428.654 134.088ZM428.474 131.083C427.998 130.697 427.297 130.773 426.908 131.253C426.519 131.733 426.589 132.435 427.065 132.821L428.474 131.083ZM413.588 121.884C414.064 122.27 414.765 122.194 415.154 121.714C415.543 121.234 415.473 120.532 414.997 120.146L413.588 121.884ZM413.559 118.964C413.104 118.553 412.401 118.592 411.987 119.051C411.573 119.51 411.606 120.215 412.06 120.626L413.559 118.964ZM408.972 115.131C409.088 115.735 409.671 116.126 410.275 116.004C410.878 115.883 411.273 115.294 411.157 114.691L408.972 115.131ZM410.986 113.527C410.902 112.917 410.341 112.496 409.732 112.585C409.123 112.674 408.698 113.24 408.781 113.85L410.986 113.527ZM407.541 104.821C407.624 105.431 408.186 105.852 408.794 105.763C409.403 105.674 409.829 105.108 409.745 104.498L407.541 104.821ZM405.252 71.8065L405.103 70.7227L402.899 71.0454L403.048 72.1293L405.252 71.8065ZM403.316 57.7169L403.167 56.6331L400.962 56.9559L401.111 58.0397L403.316 57.7169ZM403.167 56.6331C403.147 56.4888 403.131 56.3444 403.119 56.1999L400.901 56.399C400.916 56.5847 400.937 56.7704 400.962 56.9559L403.167 56.6331ZM404.409 51.2179C404.489 51.0966 404.573 50.9773 404.66 50.8601L402.883 49.5334C402.77 49.6841 402.662 49.8374 402.559 49.9933L404.409 51.2179ZM404.66 50.8601L405.492 49.7455L403.715 48.4188L402.883 49.5334L404.66 50.8601ZM415.475 36.3708L416.307 35.2562L414.529 33.9295L413.697 35.0441L415.475 36.3708ZM416.307 35.2562C416.395 35.138 416.486 35.0226 416.58 34.9101L414.881 33.4846C414.76 33.6292 414.642 33.7776 414.529 33.9295L416.307 35.2562ZM421.034 32.25C421.177 32.2207 421.322 32.1954 421.467 32.1742L421.164 29.9669C420.977 29.9942 420.791 30.0268 420.607 30.0644L421.034 32.25ZM421.467 32.1742L422.588 32.01L422.285 29.8027L421.164 29.9669L421.467 32.1742ZM436.045 30.0399L438.288 29.7115L437.984 27.5042L435.741 27.8326L436.045 30.0399ZM451.744 27.7414L453.987 27.4131L453.684 25.2058L451.441 25.5341L451.744 27.7414ZM467.444 25.443L469.686 25.1146L469.383 22.9073L467.14 23.2357L467.444 25.443ZM483.143 23.1445L485.386 22.8161L485.082 20.6089L482.84 20.9372L483.143 23.1445ZM498.842 20.846L501.085 20.5177L500.782 18.3104L498.539 18.6388L498.842 20.846ZM514.542 18.5476L516.784 18.2192L516.481 16.012L514.238 16.3403L514.542 18.5476ZM530.241 16.2491L532.484 15.9208L532.18 13.7135L529.938 14.0419L530.241 16.2491ZM545.94 13.9507L548.183 13.6223L547.88 11.415L545.637 11.7434L545.94 13.9507ZM561.64 11.6522L562.761 11.488L562.458 9.28076L561.336 9.44494L561.64 11.6522ZM562.761 11.488C563.054 11.4451 563.345 11.4192 563.633 11.4093L563.576 9.17984C563.206 9.19253 562.833 9.22589 562.458 9.28076L562.761 11.488ZM571.372 17.2241C571.442 17.5037 571.498 17.7905 571.539 18.0839L573.743 17.7611C573.692 17.3859 573.62 17.0181 573.529 16.6588L571.372 17.2241ZM571.539 18.0839L571.679 19.1081L573.884 18.7854L573.743 17.7611L571.539 18.0839ZM573.369 31.3989L573.65 33.4473L575.855 33.1246L575.573 31.0761L573.369 31.3989ZM575.339 45.7381L575.621 47.7866L577.825 47.4638L577.544 45.4153L575.339 45.7381ZM577.31 60.0773L577.592 62.1258L579.796 61.803L579.515 59.7546L577.31 60.0773ZM579.281 74.4165L579.562 76.465L581.767 76.1423L581.485 74.0938L579.281 74.4165ZM581.251 88.7558L581.533 90.8042L583.737 90.4815L583.456 88.433L581.251 88.7558ZM583.222 103.095L583.363 104.119L585.567 103.796L585.427 102.772L583.222 103.095ZM583.363 104.119C583.403 104.413 583.427 104.704 583.434 104.993L585.659 104.917C585.649 104.546 585.619 104.172 585.567 103.796L583.363 104.119ZM577.568 112.8C577.289 112.873 577.002 112.931 576.709 112.974L577.012 115.182C577.387 115.127 577.755 115.052 578.114 114.958L577.568 112.8ZM576.709 112.974L575.589 113.138L575.892 115.346L577.012 115.182L576.709 112.974ZM562.149 115.106L559.909 115.434L560.212 117.641L562.452 117.313L562.149 115.106ZM546.469 117.402L544.229 117.729L544.533 119.937L546.772 119.609L546.469 117.402ZM530.789 119.697L528.549 120.025L528.853 122.232L531.093 121.904L530.789 119.697ZM515.109 121.993L512.869 122.321L513.173 124.528L515.413 124.2L515.109 121.993ZM499.43 124.288L497.19 124.616L497.493 126.824L499.733 126.496L499.43 124.288ZM483.75 126.584L481.51 126.912L481.813 129.119L484.053 128.791L483.75 126.584ZM468.07 128.88L465.83 129.207L466.133 131.415L468.373 131.087L468.07 128.88ZM452.39 131.175L450.15 131.503L450.453 133.71L452.693 133.382L452.39 131.175ZM436.71 133.471L435.59 133.635L435.893 135.842L437.013 135.678L436.71 133.471ZM435.59 133.635C435.439 133.657 435.287 133.675 435.135 133.688L435.309 135.91C435.504 135.893 435.699 135.871 435.893 135.842L435.59 133.635ZM429.96 132.271C429.836 132.182 429.715 132.09 429.597 131.994L428.188 133.733C428.34 133.856 428.496 133.975 428.654 134.088L429.96 132.271ZM429.597 131.994L428.474 131.083L427.065 132.821L428.188 133.733L429.597 131.994ZM414.997 120.146L413.874 119.235L412.465 120.973L413.588 121.884L414.997 120.146ZM413.874 119.235C413.766 119.147 413.661 119.057 413.559 118.964L412.06 120.626C412.191 120.745 412.326 120.861 412.465 120.973L413.874 119.235ZM411.157 114.691C411.131 114.554 411.108 114.417 411.089 114.279L408.885 114.602C408.909 114.779 408.938 114.956 408.972 115.131L411.157 114.691ZM411.089 114.279L410.986 113.527L408.781 113.85L408.885 114.602L411.089 114.279ZM409.745 104.498L409.642 103.746L407.437 104.069L407.541 104.821L409.745 104.498Z" fill="black"/>
<path d="M490.691 98.3155L491.336 102.995L472.157 105.791L471.643 102.069L480.186 91.6011C481.092 90.4805 481.678 89.551 481.946 88.8128C482.211 88.0508 482.296 87.3271 482.202 86.6417C482.065 85.649 481.61 84.9438 480.838 84.526C480.086 84.081 479.045 83.9554 477.716 84.1492C476.604 84.3113 475.63 84.6703 474.795 85.2261C473.956 85.7583 473.291 86.482 472.801 87.3974L468.151 85.3266C468.943 83.7404 470.154 82.4186 471.784 81.3613C473.41 80.2803 475.347 79.576 477.595 79.2483C479.48 78.9734 481.166 79.0411 482.653 79.4512C484.16 79.8342 485.377 80.5248 486.304 81.5229C487.252 82.4939 487.828 83.7239 488.033 85.2129C488.219 86.5601 488.103 87.8669 487.686 89.1333C487.269 90.3996 486.331 91.9107 484.872 93.6666L479.778 99.9065L490.691 98.3155Z" fill="black"/>
<path d="M504.624 101.492C502.521 101.799 500.578 101.564 498.794 100.787C497.011 100.01 495.515 98.7333 494.309 96.9563C493.123 95.152 492.346 92.9145 491.978 90.2437C491.609 87.5728 491.753 85.2132 492.407 83.1648C493.082 81.0893 494.172 79.4235 495.675 78.1676C497.179 76.9116 498.982 76.1304 501.085 75.8238C503.188 75.5173 505.131 75.7524 506.915 76.5291C508.698 77.3058 510.183 78.5963 511.369 80.4005C512.576 82.1776 513.363 84.4015 513.731 87.0723C514.1 89.7432 513.946 92.1164 513.271 94.1919C512.616 96.2403 511.537 97.8925 510.034 99.1484C508.53 100.404 506.727 101.186 504.624 101.492ZM503.954 96.635C505.501 96.4095 506.62 95.5834 507.311 94.1566C508.026 92.7262 508.196 90.652 507.822 87.9339C507.447 85.2158 506.723 83.2719 505.649 82.1023C504.6 80.9292 503.301 80.4554 501.755 80.681C500.232 80.903 499.113 81.7291 498.398 83.1595C497.707 84.5863 497.549 86.6587 497.924 89.3768C498.298 92.0949 499.011 94.0405 500.06 95.2137C501.134 96.3832 502.432 96.857 503.954 96.635Z" fill="black"/>
<path d="M536.4 91.6518L537.046 96.3317L517.866 99.1277L517.353 95.4051L525.895 84.9374C526.801 83.8168 527.388 82.8874 527.656 82.1491C527.921 81.3871 528.006 80.6635 527.911 79.978C527.775 78.9853 527.32 78.2801 526.547 77.8623C525.795 77.4173 524.755 77.2917 523.425 77.4855C522.314 77.6476 521.34 78.0066 520.504 78.5624C519.665 79.0946 519.001 79.8184 518.511 80.7337L513.861 78.6629C514.653 77.0767 515.864 75.7549 517.493 74.6976C519.119 73.6166 521.057 72.9123 523.304 72.5846C525.19 72.3097 526.876 72.3774 528.362 72.7875C529.87 73.1705 531.087 73.8611 532.014 74.8592C532.961 75.8302 533.538 77.0602 533.743 78.5492C533.929 79.8965 533.813 81.2033 533.396 82.4696C532.979 83.736 532.041 85.247 530.581 87.0029L525.487 93.2428L536.4 91.6518Z" fill="black"/>
<path d="M557.786 88.5342L558.431 93.2141L539.252 96.0101L538.738 92.2875L547.281 81.8197C548.187 80.6992 548.773 79.7697 549.041 79.0314C549.306 78.2695 549.391 77.5458 549.297 76.8604C549.16 75.8677 548.705 75.1624 547.933 74.7446C547.181 74.2997 546.14 74.1741 544.811 74.3679C543.699 74.53 542.725 74.889 541.89 75.4448C541.051 75.977 540.386 76.7007 539.896 77.6161L535.246 75.5453C536.038 73.959 537.249 72.6373 538.879 71.5799C540.505 70.499 542.442 69.7947 544.69 69.467C546.575 69.1921 548.261 69.2598 549.748 69.6699C551.255 70.0529 552.472 70.7435 553.399 71.7416C554.347 72.7125 554.923 73.9425 555.128 75.4316C555.314 76.7788 555.198 78.0856 554.781 79.352C554.364 80.6183 553.426 82.1294 551.967 83.8852L546.873 90.1251L557.786 88.5342Z" fill="black"/>
<path d="M447.188 66.9378L447.671 70.4292L433.297 72.514L432.913 69.7367L439.316 61.9278C439.994 61.0919 440.434 60.3985 440.635 59.8477C440.834 59.2793 440.898 58.7394 440.827 58.228C440.724 57.4874 440.383 56.9613 439.804 56.6495C439.241 56.3175 438.461 56.2238 437.465 56.3683C436.632 56.4891 435.902 56.7568 435.276 57.1715C434.647 57.5684 434.149 58.1084 433.781 58.7912L430.297 57.246C430.891 56.0627 431.798 55.0766 433.019 54.2879C434.238 53.4816 435.69 52.9562 437.375 52.7119C438.787 52.507 440.051 52.5576 441.165 52.8636C442.295 53.1495 443.207 53.6647 443.901 54.4094C444.611 55.1339 445.043 56.0516 445.197 57.1625C445.336 58.1676 445.25 59.1425 444.937 60.0872C444.624 61.032 443.921 62.1592 442.827 63.4691L439.009 68.124L447.188 66.9378Z" fill="black"/>
<path d="M461.155 58.5444C462.161 58.8662 462.959 59.362 463.551 60.0317C464.161 60.6987 464.533 61.5171 464.667 62.487C464.826 63.6332 464.63 64.6869 464.079 65.6481C463.526 66.5917 462.675 67.3896 461.528 68.0418C460.378 68.6763 459.005 69.1091 457.411 69.3403C455.817 69.5715 454.382 69.5459 453.104 69.2634C451.843 68.9607 450.819 68.4348 450.031 67.6856C449.259 66.9161 448.794 65.9583 448.636 64.8121C448.501 63.8423 448.627 62.9516 449.014 62.1401C449.419 61.3259 450.051 60.6226 450.912 60.0301C450.146 59.7094 449.53 59.2592 449.062 58.6795C448.591 58.0823 448.298 57.3693 448.183 56.5405C448.034 55.4648 448.213 54.4856 448.719 53.6028C449.225 52.7199 450.001 51.9868 451.048 51.4033C452.092 50.8022 453.329 50.3979 454.76 50.1903C456.209 49.9801 457.517 50.0153 458.683 50.2959C459.865 50.5562 460.818 51.0385 461.544 51.7426C462.27 52.4468 462.707 53.3367 462.856 54.4124C462.971 55.2412 462.883 56.0093 462.593 56.717C462.301 57.4069 461.821 58.0161 461.155 58.5444ZM455.196 53.3379C454.308 53.4666 453.622 53.782 453.137 54.284C452.668 54.7658 452.484 55.3682 452.584 56.0911C452.681 56.7965 453.021 57.3138 453.602 57.6432C454.184 57.9726 454.927 58.0716 455.833 57.9402C456.739 57.8089 457.435 57.501 457.923 57.0166C458.41 56.5322 458.605 55.9374 458.507 55.232C458.407 54.509 458.057 53.9842 457.458 53.6574C456.856 53.313 456.102 53.2065 455.196 53.3379ZM456.976 66.1927C458.081 66.0325 458.917 65.6683 459.485 65.1003C460.069 64.5119 460.305 63.8122 460.192 63.001C460.08 62.1899 459.665 61.5936 458.947 61.212C458.247 60.8279 457.345 60.716 456.24 60.8762C455.153 61.0339 454.325 61.3967 453.757 61.9648C453.189 62.5328 452.961 63.2224 453.073 64.0336C453.188 64.8623 453.595 65.4688 454.295 65.853C454.995 66.2371 455.889 66.3504 456.976 66.1927Z" fill="black"/>
<path d="M477.655 65.3789C477.28 65.7391 476.796 66.0432 476.202 66.2912C475.623 66.519 474.999 66.6815 474.329 66.7787C472.59 67.0309 471.181 66.7946 470.101 66.0698C469.039 65.3424 468.393 64.1411 468.161 62.4659L467.351 56.6204L465.096 56.9475L464.657 53.7735L466.912 53.4464L466.432 49.9814L470.671 49.3666L471.151 52.8316L474.792 52.3035L475.231 55.4775L471.59 56.0056L472.392 61.7982C472.475 62.3978 472.694 62.8427 473.048 63.1331C473.418 63.4032 473.893 63.4962 474.473 63.4122C475.143 63.3149 475.689 63.0558 476.111 62.6349L477.655 65.3789Z" fill="black"/>
<path d="M487.016 49.9909C488.827 49.7282 490.359 50.0457 491.61 50.9435C492.88 51.8386 493.658 53.3265 493.946 55.4073L495.074 63.554L490.836 64.1687L489.796 56.6569C489.639 55.5283 489.27 54.7275 488.687 54.2544C488.102 53.7637 487.329 53.588 486.369 53.7273C485.3 53.8823 484.494 54.332 483.95 55.0764C483.404 55.8031 483.219 56.8013 483.395 58.0709L484.369 65.1067L480.13 65.7215L477.413 46.0954L481.652 45.4806L482.604 52.3577C483.09 51.7296 483.711 51.2167 484.469 50.8189C485.225 50.4036 486.074 50.1276 487.016 49.9909Z" fill="black"/>
<path d="M510.46 61.6463C509.174 61.8328 507.955 61.7757 506.805 61.4748C505.67 61.1537 504.699 60.6111 503.891 59.8469L505.941 56.6356C507.161 57.8436 508.433 58.3517 509.755 58.1599C511.549 57.8998 512.304 56.747 512.021 54.7015L510.801 45.8936L504.117 46.8631L503.641 43.4245L514.7 41.8206L516.362 53.829C516.677 56.1037 516.334 57.8982 515.334 59.2126C514.331 60.5092 512.706 61.3205 510.46 61.6463Z" fill="black"/>
<path d="M525.209 44.4515C527.473 44.123 529.285 44.3998 530.646 45.2818C532.003 46.1462 532.829 47.6363 533.122 49.7524L534.246 57.8726L530.279 58.448L530.033 56.6758C529.419 58.1139 528.026 58.9906 525.852 59.3059C524.729 59.4688 523.725 59.4255 522.84 59.1761C521.974 58.924 521.278 58.5033 520.753 57.9139C520.228 57.3245 519.908 56.6154 519.793 55.7866C519.61 54.4641 519.974 53.3502 520.883 52.4448C521.811 51.5368 523.343 50.9278 525.481 50.6178L528.85 50.1291C528.725 49.2298 528.349 48.5828 527.722 48.1881C527.092 47.7759 526.216 47.6512 525.092 47.8141C524.313 47.927 523.561 48.1621 522.834 48.5193C522.123 48.8563 521.533 49.2656 521.064 49.7474L519.143 47.085C519.864 46.4228 520.757 45.8616 521.82 45.4016C522.902 44.9389 524.032 44.6222 525.209 44.4515ZM526.527 56.3749C527.252 56.2698 527.873 56.0179 528.39 55.619C528.905 55.2025 529.237 54.6598 529.384 53.9908L529.183 52.5361L526.276 52.9578C524.537 53.21 523.744 53.8915 523.898 55.0025C523.971 55.5315 524.238 55.9245 524.699 56.1814C525.175 56.4181 525.784 56.4826 526.527 56.3749Z" fill="black"/>
<path d="M544.968 41.5857C546.779 41.3229 548.311 41.6404 549.562 42.5382C550.832 43.4333 551.611 44.9212 551.899 47.002L553.027 55.1487L548.788 55.7635L547.748 48.2516C547.592 47.123 547.222 46.3222 546.639 45.8491C546.054 45.3584 545.281 45.1827 544.321 45.322C543.252 45.477 542.446 45.9267 541.902 46.6711C541.356 47.3978 541.171 48.396 541.347 49.6656L542.321 56.7014L538.082 57.3162L536.112 43.0859L540.161 42.4987L540.391 44.1651C540.87 43.4841 541.504 42.9245 542.293 42.4862C543.08 42.0304 543.972 41.7302 544.968 41.5857Z" fill="black"/>
<defs>
<filter id="filter0_d_219_2635" x="0.545813" y="71.2633" width="843.346" height="208.099" filterUnits="userSpaceOnUse" color-interpolation-filters="sRGB">
<feFlood flood-opacity="0" result="BackgroundImageFix"/>
<feColorMatrix in="SourceAlpha" type="matrix" values="0 0 0 0 0 0 0 0 0 0 0 0 0 0 0 0 0 0 127 0" result="hardAlpha"/>
<feOffset dy="4.45614"/>
<feGaussianBlur stdDeviation="2.22807"/>
<feComposite in2="hardAlpha" operator="out"/>
<feColorMatrix type="matrix" values="0 0 0 0 0.108333 0 0 0 0 0.13 0 0 0 0 0.325 0 0 0 0.46 0"/>
<feBlend mode="normal" in2="BackgroundImageFix" result="effect1_dropShadow_219_2635"/>
<feBlend mode="normal" in="SourceGraphic" in2="effect1_dropShadow_219_2635" result="shape"/>
</filter>
<linearGradient id="paint0_linear_219_2635" x1="40.2788" y1="124.055" x2="840.204" y2="250.346" gradientUnits="userSpaceOnUse">
<stop stop-color="white"/>
<stop offset="0.119792" stop-color="#4AFFFF" stop-opacity="0.880208"/>
<stop offset="0.21875" stop-color="#CCFFDA"/>
<stop offset="0.317708" stop-color="white" stop-opacity="0.816491"/>
<stop offset="0.416667" stop-color="#5ADCF9"/>
<stop offset="0.536458" stop-color="#FF4DCD"/>
<stop offset="0.645833" stop-color="#00FFFF" stop-opacity="0.816491"/>
<stop offset="0.770833" stop-color="white" stop-opacity="0.816491"/>
<stop offset="0.901042" stop-color="#FF4DCD"/>
<stop offset="1" stop-color="#79FFF7"/>
</linearGradient>
<linearGradient id="paint1_linear_219_2635" x1="409.459" y1="85.9738" x2="586.255" y2="62.1947" gradientUnits="userSpaceOnUse">
<stop stop-color="#F49CF5"/>
<stop offset="0.171875" stop-color="#C1FBFF"/>
<stop offset="0.328125" stop-color="#99C2FF"/>
<stop offset="0.5" stop-color="#A1F3AA"/>
<stop offset="0.651042" stop-color="#FFE55F"/>
<stop offset="0.833333" stop-color="#78F0E9"/>
<stop offset="1" stop-color="#FF81EB"/>
</linearGradient>
<radialGradient id="paint2_angular_219_2635" cx="0" cy="0" r="1" gradientUnits="userSpaceOnUse" gradientTransform="translate(497.678 72.7591) rotate(108.502) scale(189.012 298.034)">
<stop/>
<stop offset="0.119792" stop-color="white"/>
<stop offset="0.255208"/>
<stop offset="0.375" stop-color="white"/>
<stop offset="0.546875"/>
<stop offset="0.666667" stop-color="white"/>
<stop offset="0.864583"/>
<stop offset="1" stop-color="white"/>
</radialGradient>
<radialGradient id="paint3_angular_219_2635" cx="0" cy="0" r="1" gradientUnits="userSpaceOnUse" gradientTransform="translate(497.678 72.7591) rotate(108.502) scale(189.012 298.034)">
<stop/>
<stop offset="0.119792" stop-color="white"/>
<stop offset="0.255208"/>
<stop offset="0.375" stop-color="white"/>
<stop offset="0.546875"/>
<stop offset="0.666667" stop-color="white"/>
<stop offset="0.864583"/>
<stop offset="1" stop-color="white"/>
</radialGradient>
<radialGradient id="paint4_angular_219_2635" cx="0" cy="0" r="1" gradientUnits="userSpaceOnUse" gradientTransform="translate(497.678 72.7591) rotate(108.502) scale(189.012 298.034)">
<stop/>
<stop offset="0.119792" stop-color="white"/>
<stop offset="0.255208"/>
<stop offset="0.375" stop-color="white"/>
<stop offset="0.546875"/>
<stop offset="0.666667" stop-color="white"/>
<stop offset="0.864583"/>
<stop offset="1" stop-color="white"/>
</radialGradient>
</defs>
</svg>
