<svg width="15" height="14" viewBox="0 0 15 14" fill="none" xmlns="http://www.w3.org/2000/svg">
<path d="M13.8893 8.59091H0.652378C0.568684 8.59091 0.500208 8.6625 0.500208 8.75V9.94318C0.500208 10.0307 0.568684 10.1023 0.652378 10.1023H12.164L9.41927 13.7415C9.34128 13.8449 9.41166 14 9.5391 14H10.9181C11.0113 14 11.0988 13.9563 11.1578 13.8787L14.3686 9.62102C14.6824 9.20341 14.399 8.59091 13.8893 8.59091ZM14.3477 3.89773H2.83602L5.58078 0.258523C5.65877 0.155114 5.58839 0 5.46095 0H4.08191C3.9887 0 3.90121 0.0437501 3.84224 0.121307L0.631454 4.37898C0.317604 4.79659 0.60102 5.40909 1.10889 5.40909H14.3477C14.4314 5.40909 14.4998 5.3375 14.4998 5.25V4.05682C14.4998 3.96932 14.4314 3.89773 14.3477 3.89773Z" fill="white"/>
</svg>
