<svg width="1188" height="248" viewBox="0 0 1188 248" fill="none" xmlns="http://www.w3.org/2000/svg">
<g filter="url(#filter0_b_122_2185)">
<path d="M104 6.10352e-05H1159C1172.81 6.10352e-05 1184 11.1929 1184 25.0001V124.138V140C1184 195.229 1139.23 240 1084 240H29C15.1929 240 4 228.807 4 215V100C4 44.7716 48.7716 6.10352e-05 104 6.10352e-05Z" fill="url(#paint0_radial_122_2185)"/>
<path d="M1159 0.500061H104C49.0477 0.500061 4.5 45.0477 4.5 100V215C4.5 228.531 15.469 239.5 29 239.5H1084C1138.95 239.5 1183.5 194.952 1183.5 140V124.138V25.0001C1183.5 11.4691 1172.53 0.500061 1159 0.500061Z" stroke="url(#paint1_linear_122_2185)"/>
</g>
<g style="mix-blend-mode:difference" opacity="0.5" filter="url(#filter1_b_122_2185)">
<path d="M104 6.10352e-05H1159C1172.81 6.10352e-05 1184 11.1929 1184 25.0001V124.138V140C1184 195.229 1139.23 240 1084 240H29C15.1929 240 4 228.807 4 215V100C4 44.7716 48.7716 6.10352e-05 104 6.10352e-05Z" fill="url(#paint2_linear_122_2185)"/>
<path d="M1159 0.500061H104C49.0477 0.500061 4.5 45.0477 4.5 100V215C4.5 228.531 15.469 239.5 29 239.5H1084C1138.95 239.5 1183.5 194.952 1183.5 140V124.138V25.0001C1183.5 11.4691 1172.53 0.500061 1159 0.500061Z" stroke="url(#paint3_linear_122_2185)"/>
</g>
<g style="mix-blend-mode:screen" filter="url(#filter2_d_122_2185)">
<path d="M104 6.10352e-05H1159C1172.81 6.10352e-05 1184 11.1929 1184 25.0001V124.138V140C1184 195.229 1139.23 240 1084 240H29C15.1929 240 4 228.807 4 215V100C4 44.7716 48.7716 6.10352e-05 104 6.10352e-05Z" fill="url(#paint4_linear_122_2185)"/>
<path d="M1159 0.500061H104C49.0477 0.500061 4.5 45.0477 4.5 100V215C4.5 228.531 15.469 239.5 29 239.5H1084C1138.95 239.5 1183.5 194.952 1183.5 140V124.138V25.0001C1183.5 11.4691 1172.53 0.500061 1159 0.500061Z" stroke="url(#paint5_linear_122_2185)"/>
</g>
<defs>
<filter id="filter0_b_122_2185" x="0" y="-3.99994" width="1188" height="248" filterUnits="userSpaceOnUse" color-interpolation-filters="sRGB">
<feFlood flood-opacity="0" result="BackgroundImageFix"/>
<feGaussianBlur in="BackgroundImage" stdDeviation="2"/>
<feComposite in2="SourceAlpha" operator="in" result="effect1_backgroundBlur_122_2185"/>
<feBlend mode="normal" in="SourceGraphic" in2="effect1_backgroundBlur_122_2185" result="shape"/>
</filter>
<filter id="filter1_b_122_2185" x="0" y="-3.99994" width="1188" height="248" filterUnits="userSpaceOnUse" color-interpolation-filters="sRGB">
<feFlood flood-opacity="0" result="BackgroundImageFix"/>
<feGaussianBlur in="BackgroundImage" stdDeviation="2"/>
<feComposite in2="SourceAlpha" operator="in" result="effect1_backgroundBlur_122_2185"/>
<feBlend mode="normal" in="SourceGraphic" in2="effect1_backgroundBlur_122_2185" result="shape"/>
</filter>
<filter id="filter2_d_122_2185" x="0" y="6.10352e-05" width="1188" height="248" filterUnits="userSpaceOnUse" color-interpolation-filters="sRGB">
<feFlood flood-opacity="0" result="BackgroundImageFix"/>
<feColorMatrix in="SourceAlpha" type="matrix" values="0 0 0 0 0 0 0 0 0 0 0 0 0 0 0 0 0 0 127 0" result="hardAlpha"/>
<feOffset dy="4"/>
<feGaussianBlur stdDeviation="2"/>
<feComposite in2="hardAlpha" operator="out"/>
<feColorMatrix type="matrix" values="0 0 0 0 0 0 0 0 0 0 0 0 0 0 0 0 0 0 0.25 0"/>
<feBlend mode="normal" in2="BackgroundImageFix" result="effect1_dropShadow_122_2185"/>
<feBlend mode="normal" in="SourceGraphic" in2="effect1_dropShadow_122_2185" result="shape"/>
</filter>
<radialGradient id="paint0_radial_122_2185" cx="0" cy="0" r="1" gradientUnits="userSpaceOnUse" gradientTransform="translate(768.501 394.859) rotate(-160.225) scale(812.41 867.358)">
<stop stop-color="#72FFF9"/>
<stop offset="0.234375" stop-color="#FAFFDA"/>
<stop offset="0.378148" stop-color="#9DD9FB"/>
<stop offset="0.461432" stop-color="#A0FAEA"/>
<stop offset="0.544715" stop-color="#9AA6FF"/>
<stop offset="0.635417" stop-color="#B4D7E6"/>
<stop offset="0.755208" stop-color="#FCCDB9"/>
<stop offset="0.848958" stop-color="#CFF4FF"/>
<stop offset="0.921875" stop-color="#FAFFED"/>
<stop offset="1" stop-color="#40D1FF"/>
</radialGradient>
<linearGradient id="paint1_linear_122_2185" x1="594" y1="561.104" x2="594" y2="2680.83" gradientUnits="userSpaceOnUse">
<stop stop-color="white"/>
<stop offset="0.955449" stop-color="white" stop-opacity="0"/>
</linearGradient>
<linearGradient id="paint2_linear_122_2185" x1="1184" y1="150" x2="9.64204" y2="150.384" gradientUnits="userSpaceOnUse">
<stop stop-color="white"/>
<stop offset="0.119713"/>
<stop offset="0.229167" stop-color="white"/>
<stop offset="0.34258"/>
<stop offset="0.461323" stop-color="white"/>
<stop offset="0.589193"/>
<stop offset="0.7262" stop-color="white"/>
<stop offset="0.815712"/>
<stop offset="0.907045" stop-color="white"/>
<stop offset="1"/>
</linearGradient>
<linearGradient id="paint3_linear_122_2185" x1="594" y1="561.104" x2="594" y2="2680.83" gradientUnits="userSpaceOnUse">
<stop stop-color="white"/>
<stop offset="0.955449" stop-color="white" stop-opacity="0"/>
</linearGradient>
<linearGradient id="paint4_linear_122_2185" x1="1184" y1="150" x2="9.64204" y2="150.384" gradientUnits="userSpaceOnUse">
<stop stop-color="white"/>
<stop offset="0.119713"/>
<stop offset="0.229167" stop-color="white"/>
<stop offset="0.34258"/>
<stop offset="0.461323" stop-color="white"/>
<stop offset="0.589193"/>
<stop offset="0.7262" stop-color="white"/>
<stop offset="0.815712"/>
<stop offset="0.907045" stop-color="white"/>
<stop offset="1"/>
</linearGradient>
<linearGradient id="paint5_linear_122_2185" x1="594" y1="561.104" x2="594" y2="2680.83" gradientUnits="userSpaceOnUse">
<stop stop-color="white"/>
<stop offset="0.955449" stop-color="white" stop-opacity="0"/>
</linearGradient>
</defs>
</svg>
