<svg width="76" height="30" viewBox="0 0 76 30" fill="none" xmlns="http://www.w3.org/2000/svg">
<g filter="url(#filter0_b_456_7559)">
<rect width="76" height="30" rx="4" fill="url(#paint0_radial_456_7559)"/>
</g>
<path d="M23.877 20H30.7949V17.7031H26.7754V10.1357H23.877V20ZM32.3398 20H35.1426V12.3164H32.3398V20ZM33.7412 11.4277C34.1331 11.4277 34.4681 11.2933 34.7461 11.0244C35.0286 10.751 35.1699 10.4206 35.1699 10.0332C35.1699 9.64128 35.0286 9.31087 34.7461 9.04199C34.4681 8.76855 34.1331 8.63184 33.7412 8.63184C33.3538 8.63184 33.0189 8.76855 32.7363 9.04199C32.4538 9.31087 32.3125 9.64128 32.3125 10.0332C32.3125 10.4206 32.4538 10.751 32.7363 11.0244C33.0189 11.2933 33.3538 11.4277 33.7412 11.4277ZM38.7725 20H42.0537L44.5283 12.3164H41.5957L40.5225 17.5664H40.3857L39.2852 12.3164H36.2637L38.7725 20ZM48.9238 20.1914C49.5892 20.1914 50.1497 20.1071 50.6055 19.9385C51.0658 19.7699 51.4395 19.5579 51.7266 19.3027C52.0137 19.043 52.2324 18.7741 52.3828 18.4961C52.5332 18.2135 52.6335 17.9629 52.6836 17.7441L52.7041 17.6553L50.1748 17.6621L50.1611 17.6826C50.1338 17.7236 50.0745 17.792 49.9834 17.8877C49.8923 17.9788 49.7646 18.0654 49.6006 18.1475C49.4365 18.2249 49.2292 18.2637 48.9785 18.2637C48.7051 18.2637 48.4704 18.2044 48.2744 18.0859C48.083 17.9629 47.9349 17.7874 47.8301 17.5596C47.7298 17.3271 47.6797 17.0492 47.6797 16.7256V15.5908C47.6797 15.2673 47.7298 14.9915 47.8301 14.7637C47.9349 14.5312 48.0785 14.3558 48.2607 14.2373C48.4476 14.1143 48.6641 14.0527 48.9102 14.0527C49.1608 14.0527 49.3773 14.1143 49.5596 14.2373C49.7419 14.3558 49.8831 14.5312 49.9834 14.7637C50.0882 14.9915 50.1406 15.2673 50.1406 15.5908V16.7119L51.4258 15.2148H46.3193V16.7666H52.7383V15.9941C52.7383 15.2057 52.5788 14.5221 52.2598 13.9434C51.9408 13.3646 51.4873 12.918 50.8994 12.6035C50.3161 12.2845 49.6279 12.125 48.835 12.125C48.0374 12.125 47.347 12.2868 46.7637 12.6104C46.1849 12.9294 45.736 13.3896 45.417 13.9912C45.098 14.5928 44.9385 15.3128 44.9385 16.1514V16.1582C44.9385 16.9967 45.098 17.7168 45.417 18.3184C45.7406 18.9199 46.1986 19.3825 46.791 19.7061C47.388 20.0296 48.099 20.1914 48.9238 20.1914Z" fill="black"/>
<defs>
<filter id="filter0_b_456_7559" x="-2.56317" y="-2.56317" width="81.1263" height="35.1263" filterUnits="userSpaceOnUse" color-interpolation-filters="sRGB">
<feFlood flood-opacity="0" result="BackgroundImageFix"/>
<feGaussianBlur in="BackgroundImage" stdDeviation="1.28158"/>
<feComposite in2="SourceAlpha" operator="in" result="effect1_backgroundBlur_456_7559"/>
<feBlend mode="normal" in="SourceGraphic" in2="effect1_backgroundBlur_456_7559" result="shape"/>
</filter>
<radialGradient id="paint0_radial_456_7559" cx="0" cy="0" r="1" gradientUnits="userSpaceOnUse" gradientTransform="translate(32.9129 61.0652) rotate(-35.0658) scale(73.9877 116.671)">
<stop stop-color="#72FFF9"/>
<stop offset="0.234375" stop-color="#FAFFDA"/>
<stop offset="0.378148" stop-color="#9DD9FB"/>
<stop offset="0.461432" stop-color="#A0FAEA"/>
<stop offset="0.544715" stop-color="#9AA6FF"/>
<stop offset="0.635417" stop-color="#B4D7E6"/>
<stop offset="0.755208" stop-color="#FCCDB9"/>
<stop offset="0.848958" stop-color="#CFF4FF"/>
<stop offset="0.921875" stop-color="#FAFFED"/>
<stop offset="1" stop-color="#40D1FF"/>
</radialGradient>
</defs>
</svg>
