<svg width="76" height="30" viewBox="0 0 76 30" fill="none" xmlns="http://www.w3.org/2000/svg">
<g filter="url(#filter0_b_456_7565)">
<rect width="76" height="30" rx="4" fill="url(#paint0_linear_456_7565)"/>
</g>
<path d="M12.6865 20H15.585V16.6914H16.4053C16.4281 16.6914 16.4508 16.6914 16.4736 16.6914C16.4964 16.6914 16.5169 16.6914 16.5352 16.6914L18.0938 20H21.334L19.4609 16.2607C19.9714 16.0146 20.3633 15.6387 20.6367 15.1328C20.9102 14.6224 21.0469 14.0778 21.0469 13.499V13.4854C21.0469 12.779 20.8988 12.1774 20.6025 11.6807C20.3109 11.1794 19.8757 10.7965 19.2969 10.5322C18.7181 10.2679 17.9958 10.1357 17.1299 10.1357H12.6865V20ZM15.585 14.7773V12.2754H16.7949C17.1914 12.2754 17.5059 12.3916 17.7383 12.624C17.9753 12.8564 18.0938 13.1549 18.0938 13.5195V13.5332C18.0938 13.9069 17.9753 14.2077 17.7383 14.4355C17.5059 14.6634 17.1914 14.7773 16.7949 14.7773H15.585ZM26.0713 20.1914C26.7367 20.1914 27.2972 20.1071 27.7529 19.9385C28.2132 19.7699 28.5869 19.5579 28.874 19.3027C29.1611 19.043 29.3799 18.7741 29.5303 18.4961C29.6807 18.2135 29.7809 17.9629 29.8311 17.7441L29.8516 17.6553L27.3223 17.6621L27.3086 17.6826C27.2812 17.7236 27.222 17.792 27.1309 17.8877C27.0397 17.9788 26.9121 18.0654 26.748 18.1475C26.584 18.2249 26.3766 18.2637 26.126 18.2637C25.8525 18.2637 25.6178 18.2044 25.4219 18.0859C25.2305 17.9629 25.0824 17.7874 24.9775 17.5596C24.8773 17.3271 24.8271 17.0492 24.8271 16.7256V15.5908C24.8271 15.2673 24.8773 14.9915 24.9775 14.7637C25.0824 14.5312 25.2259 14.3558 25.4082 14.2373C25.5951 14.1143 25.8115 14.0527 26.0576 14.0527C26.3083 14.0527 26.5247 14.1143 26.707 14.2373C26.8893 14.3558 27.0306 14.5312 27.1309 14.7637C27.2357 14.9915 27.2881 15.2673 27.2881 15.5908V16.7119L28.5732 15.2148H23.4668V16.7666H29.8857V15.9941C29.8857 15.2057 29.7262 14.5221 29.4072 13.9434C29.0882 13.3646 28.6348 12.918 28.0469 12.6035C27.4635 12.2845 26.7754 12.125 25.9824 12.125C25.1849 12.125 24.4945 12.2868 23.9111 12.6104C23.3324 12.9294 22.8835 13.3896 22.5645 13.9912C22.2454 14.5928 22.0859 15.3128 22.0859 16.1514V16.1582C22.0859 16.9967 22.2454 17.7168 22.5645 18.3184C22.888 18.9199 23.346 19.3825 23.9385 19.7061C24.5355 20.0296 25.2464 20.1914 26.0713 20.1914ZM34.9102 20.1914C35.6302 20.1914 36.2523 20.0684 36.7764 19.8223C37.305 19.5716 37.7197 19.2139 38.0205 18.749C38.3258 18.2842 38.499 17.7282 38.54 17.0811L38.5332 17.0674L36.0107 17.0742H35.9971C35.9606 17.4251 35.8535 17.6872 35.6758 17.8604C35.5026 18.029 35.2542 18.1133 34.9307 18.1133C34.6572 18.1133 34.4339 18.0449 34.2607 17.9082C34.0921 17.7715 33.9668 17.5596 33.8848 17.2725C33.8027 16.9808 33.7617 16.6094 33.7617 16.1582V16.1445C33.7617 15.6934 33.8027 15.3265 33.8848 15.0439C33.9668 14.7568 34.0921 14.5449 34.2607 14.4082C34.4339 14.2715 34.6572 14.2031 34.9307 14.2031C35.2542 14.2031 35.5026 14.2965 35.6758 14.4834C35.8535 14.6657 35.9629 14.9391 36.0039 15.3037L36.0107 15.3105H38.5332H38.5469C38.5013 14.627 38.3304 14.0482 38.0342 13.5742C37.738 13.1003 37.3255 12.7402 36.7969 12.4941C36.2728 12.248 35.6439 12.125 34.9102 12.125C34.0306 12.125 33.2946 12.2754 32.7021 12.5762C32.1097 12.877 31.6631 13.3258 31.3623 13.9229C31.0661 14.5153 30.918 15.2559 30.918 16.1445V16.1582C30.918 17.0469 31.0661 17.792 31.3623 18.3936C31.6631 18.9906 32.1097 19.4395 32.7021 19.7402C33.2946 20.041 34.0306 20.1914 34.9102 20.1914ZM43.5576 20.1914C44.4053 20.1914 45.1299 20.0319 45.7314 19.7129C46.333 19.3939 46.791 18.9336 47.1055 18.332C47.4245 17.7305 47.584 17.0059 47.584 16.1582V16.1445C47.584 15.3105 47.4222 14.5951 47.0986 13.998C46.7751 13.3965 46.3125 12.9339 45.7109 12.6104C45.1094 12.2868 44.3916 12.125 43.5576 12.125C42.7282 12.125 42.0127 12.2891 41.4111 12.6172C40.8096 12.9408 40.3447 13.4033 40.0166 14.0049C39.693 14.6019 39.5312 15.3151 39.5312 16.1445V16.1582C39.5312 17.0059 39.6908 17.7305 40.0098 18.332C40.3288 18.9336 40.7891 19.3939 41.3906 19.7129C41.9922 20.0319 42.7145 20.1914 43.5576 20.1914ZM43.5576 18.1133C43.3161 18.1133 43.1087 18.0381 42.9355 17.8877C42.7624 17.7327 42.6302 17.5094 42.5391 17.2178C42.4479 16.9261 42.4023 16.5752 42.4023 16.165V16.1514C42.4023 15.7503 42.4479 15.4062 42.5391 15.1191C42.6348 14.8275 42.7692 14.6019 42.9424 14.4424C43.1156 14.2829 43.3206 14.2031 43.5576 14.2031C43.7992 14.2031 44.0042 14.2829 44.1729 14.4424C44.346 14.6019 44.4782 14.8275 44.5693 15.1191C44.665 15.4062 44.7129 15.7503 44.7129 16.1514V16.165C44.7129 16.5706 44.6673 16.9193 44.5762 17.2109C44.485 17.5026 44.3529 17.7259 44.1797 17.8809C44.0111 18.0358 43.8037 18.1133 43.5576 18.1133ZM48.9854 20H51.7881V16.1445C51.7881 15.7936 51.8542 15.4974 51.9863 15.2559C52.123 15.0143 52.3213 14.832 52.5811 14.709C52.8454 14.5814 53.1667 14.5176 53.5449 14.5176C53.7272 14.5176 53.9118 14.5312 54.0986 14.5586C54.29 14.5859 54.4723 14.6247 54.6455 14.6748V12.3506C54.5088 12.3005 54.3652 12.264 54.2148 12.2412C54.0645 12.2184 53.9095 12.207 53.75 12.207C53.2715 12.207 52.8727 12.3255 52.5537 12.5625C52.2347 12.7995 52.0251 13.1344 51.9248 13.5674H51.7881V12.3164H48.9854V20ZM58.3438 20.1094C58.8952 20.1094 59.36 20 59.7383 19.7812C60.1165 19.5579 60.3877 19.2458 60.5518 18.8447H60.6885V20H63.4912V9.48633H60.6885V13.5605H60.5518C60.374 13.1322 60.0938 12.7995 59.7109 12.5625C59.3281 12.3255 58.8724 12.207 58.3438 12.207C57.6966 12.207 57.1475 12.3597 56.6963 12.665C56.2497 12.9704 55.9079 13.417 55.6709 14.0049C55.4385 14.5928 55.3223 15.3083 55.3223 16.1514V16.165C55.3223 16.999 55.443 17.71 55.6846 18.2979C55.9261 18.8857 56.2725 19.3346 56.7236 19.6445C57.1748 19.9544 57.7148 20.1094 58.3438 20.1094ZM59.4307 17.8535C59.1755 17.8535 58.9521 17.7874 58.7607 17.6553C58.5739 17.5186 58.4281 17.3249 58.3232 17.0742C58.2184 16.819 58.166 16.516 58.166 16.165V16.1514C58.166 15.805 58.2184 15.5065 58.3232 15.2559C58.4281 15.0007 58.5762 14.8047 58.7676 14.668C58.959 14.5312 59.18 14.4629 59.4307 14.4629C59.6859 14.4629 59.9069 14.5312 60.0938 14.668C60.2852 14.8001 60.4333 14.9938 60.5381 15.249C60.6475 15.4997 60.7021 15.8027 60.7021 16.1582V16.1719C60.7021 16.5228 60.6497 16.8258 60.5449 17.0811C60.4401 17.3317 60.292 17.5231 60.1006 17.6553C59.9137 17.7874 59.6904 17.8535 59.4307 17.8535Z" fill="white"/>
<defs>
<filter id="filter0_b_456_7565" x="-2.56317" y="-2.56317" width="81.1263" height="35.1263" filterUnits="userSpaceOnUse" color-interpolation-filters="sRGB">
<feFlood flood-opacity="0" result="BackgroundImageFix"/>
<feGaussianBlur in="BackgroundImage" stdDeviation="1.28158"/>
<feComposite in2="SourceAlpha" operator="in" result="effect1_backgroundBlur_456_7565"/>
<feBlend mode="normal" in="SourceGraphic" in2="effect1_backgroundBlur_456_7565" result="shape"/>
</filter>
<linearGradient id="paint0_linear_456_7565" x1="2.32563" y1="30" x2="56.338" y2="30.4529" gradientUnits="userSpaceOnUse">
<stop stop-color="#FF4DCD"/>
<stop offset="1" stop-color="#4976EC"/>
</linearGradient>
</defs>
</svg>
