<svg width="76" height="30" viewBox="0 0 76 30" fill="none" xmlns="http://www.w3.org/2000/svg">
<g filter="url(#filter0_b_363_1226)">
<rect width="76" height="30" rx="4" fill="url(#paint0_linear_363_1226)"/>
</g>
<path d="M29.334 14.75V16.262H37.622V14.75H29.334ZM30.02 10.2V15.31H31.518V11.698H35.396V15.31H36.95V10.2H30.02ZM32.61 8.24V13.63C32.61 16.192 32.162 18.572 28.466 19.972C28.816 20.252 29.306 20.854 29.516 21.218C33.618 19.608 34.15 16.696 34.15 13.644V8.24H32.61ZM34.318 15.38L32.932 15.674C33.576 18.25 34.71 20.252 36.684 21.316C36.922 20.896 37.398 20.266 37.762 19.958C35.97 19.16 34.85 17.438 34.318 15.38ZM25.652 9.01V10.508H27.5V17.088H25.652V18.586H29.026V9.01H25.652ZM25.792 12.986V14.442H28.452V12.986H25.792ZM24.882 9.01V19.832H26.408V9.01H24.882ZM44.44 8.114C43.908 9.164 42.956 10.396 41.626 11.334C42.018 11.53 42.564 11.95 42.844 12.286C44.244 11.138 45.252 9.78 46.008 8.408L44.44 8.114ZM44.874 8.968L43.908 10.186H47.996V8.968H44.874ZM44.16 12.076H49.466V13.14H44.16V12.076ZM42.648 10.928V14.26H51.076V10.928H42.648ZM45.98 11.432V13.658H47.478V11.432H45.98ZM46.232 13.252C45.266 14.176 43.502 14.974 41.906 15.436C42.186 15.688 42.62 16.248 42.816 16.528C44.44 15.926 46.344 14.904 47.492 13.756L46.232 13.252ZM44.524 15.142C46.736 16.682 46.778 19.076 46.176 19.622C45.994 19.846 45.77 19.888 45.476 19.888C45.196 19.888 44.832 19.874 44.426 19.818C44.678 20.238 44.79 20.854 44.804 21.246C45.154 21.274 45.518 21.274 45.798 21.274C46.414 21.246 46.848 21.134 47.282 20.7C48.43 19.72 48.402 16.346 45.63 14.47L44.524 15.142ZM45.966 15.38C45.098 16.15 43.334 17.032 41.99 17.41C42.27 17.69 42.578 18.152 42.746 18.474C44.132 17.914 45.91 16.892 46.89 16.01L45.966 15.38ZM46.652 16.808C45.616 17.886 43.474 19.062 41.766 19.594C42.088 19.888 42.438 20.406 42.634 20.77C44.37 20.07 46.526 18.74 47.702 17.55L46.652 16.808ZM50.446 14.54C49.942 15.1 49.074 15.856 48.458 16.276L49.41 17.186C50.04 16.794 50.894 16.15 51.566 15.548L50.446 14.54ZM48.472 13.532L47.114 13.77C47.688 16.836 48.71 19.37 50.67 20.714C50.908 20.294 51.398 19.692 51.748 19.398C49.956 18.334 48.948 16.066 48.472 13.532ZM47.492 8.968V9.234C47.268 9.766 46.778 10.564 46.344 11.04C46.61 11.264 47.044 11.74 47.254 12.034C47.884 11.418 48.626 10.438 49.13 9.584L48.15 8.87L47.842 8.968H47.492ZM40.926 8.142C40.324 10.186 39.288 12.244 38.154 13.56C38.42 14.008 38.826 14.96 38.966 15.38C40.394 13.7 41.682 11.04 42.48 8.59L40.926 8.142ZM39.82 11.978V21.246H41.416V10.466L41.374 10.438L39.82 11.978Z" fill="white"/>
<defs>
<filter id="filter0_b_363_1226" x="-2.56317" y="-2.56317" width="81.1263" height="35.1263" filterUnits="userSpaceOnUse" color-interpolation-filters="sRGB">
<feFlood flood-opacity="0" result="BackgroundImageFix"/>
<feGaussianBlur in="BackgroundImage" stdDeviation="1.28158"/>
<feComposite in2="SourceAlpha" operator="in" result="effect1_backgroundBlur_363_1226"/>
<feBlend mode="normal" in="SourceGraphic" in2="effect1_backgroundBlur_363_1226" result="shape"/>
</filter>
<linearGradient id="paint0_linear_363_1226" x1="2.32563" y1="30" x2="56.338" y2="30.4529" gradientUnits="userSpaceOnUse">
<stop stop-color="#FF4DCD"/>
<stop offset="1" stop-color="#4976EC"/>
</linearGradient>
</defs>
</svg>
