<svg width="76" height="30" viewBox="0 0 76 30" fill="none" xmlns="http://www.w3.org/2000/svg">
<g filter="url(#filter0_b_363_4014)">
<rect width="76" height="30" rx="4" fill="url(#paint0_radial_363_4014)"/>
</g>
<path d="M15.5827 10.69L14.1967 9.808C13.8187 9.892 13.3707 9.906 13.1047 9.906C12.3207 9.906 7.67272 9.906 6.62272 9.906C6.16072 9.906 5.37672 9.85 4.95672 9.794V11.768C5.32072 11.754 5.97872 11.712 6.62272 11.712C7.67272 11.712 12.2927 11.712 13.1467 11.712C12.9507 12.916 12.4327 14.498 11.4947 15.674C10.3607 17.088 8.79272 18.306 6.00672 18.95L7.53272 20.63C10.0387 19.832 11.9007 18.432 13.1607 16.766C14.3367 15.198 14.9527 13.028 15.2747 11.656C15.3447 11.362 15.4427 10.956 15.5827 10.69ZM18.3473 16.024L19.1733 17.662C20.7693 17.186 22.9253 16.248 24.1853 15.506C25.7113 14.61 27.4053 13.294 28.2453 12.384L26.8593 11.026C26.1313 11.936 24.7313 13.182 23.3593 14.008C22.2533 14.68 20.1813 15.618 18.3473 16.024ZM23.2053 15.114V19.72C23.2053 20.224 23.1633 20.966 23.1213 21.246H25.2073C25.1233 20.966 25.1093 20.224 25.1093 19.72V14.75L23.2053 15.114ZM41.0693 9.262L39.8933 9.738C40.4113 10.466 40.7193 11.068 41.1393 11.95L42.3433 11.418C42.0353 10.774 41.4613 9.85 41.0693 9.262ZM43.0013 8.576L41.8113 9.08C42.3293 9.78 42.6653 10.326 43.1133 11.208L44.3173 10.676C43.9813 10.06 43.4353 9.136 43.0013 8.576ZM34.9933 8.982L33.9713 10.522C34.8953 11.04 36.3653 11.992 37.1353 12.538L38.1853 10.984C37.4573 10.48 35.9173 9.486 34.9933 8.982ZM32.4033 18.922L33.4533 20.77C34.6853 20.546 36.7013 19.846 38.1153 19.034C40.4113 17.718 42.3853 15.94 43.6873 14.008L42.6093 12.104C41.4893 14.106 39.5433 16.024 37.1633 17.354C35.6373 18.194 33.9573 18.656 32.4033 18.922ZM32.8373 12.174L31.8153 13.728C32.7673 14.218 34.2093 15.17 35.0073 15.716L36.0293 14.148C35.3153 13.644 33.7753 12.678 32.8373 12.174ZM52.3113 8.772H50.2393C50.2953 9.108 50.3513 9.752 50.3513 10.06C50.3373 13.756 49.6933 16.136 47.8593 17.956C47.2993 18.53 46.5993 18.992 46.0113 19.314L47.6493 20.63C50.7433 18.432 52.0593 15.59 52.2133 10.032C52.2273 9.696 52.2693 9.108 52.3113 8.772ZM57.0573 11.782L55.8533 11.18C55.5173 11.25 55.1533 11.278 54.7893 11.278H48.3073C47.7753 11.278 47.0613 11.25 46.4733 11.18V13.028C47.0613 12.972 47.8453 12.958 48.3213 12.958H55.1533C55.1533 14.47 54.9573 17.27 54.5513 18.152C54.4113 18.502 54.2153 18.656 53.7673 18.656C53.2073 18.656 52.4933 18.572 51.7933 18.46L52.0173 20.322C52.7033 20.378 53.5293 20.448 54.3413 20.448C55.2933 20.448 55.8393 20.07 56.1333 19.37C56.7353 17.942 56.9173 14.036 56.9733 12.51C56.9733 12.356 57.0153 12.006 57.0573 11.782ZM65.8913 19.692L67.0673 20.658C67.2073 20.56 67.3753 20.406 67.6693 20.252C69.2513 19.454 71.2533 17.942 72.4153 16.43L71.3513 14.876C70.3993 16.234 69.0273 17.34 67.8793 17.83C67.8793 16.976 67.8793 11.642 67.8793 10.522C67.8793 9.892 67.9773 9.332 67.9773 9.304H65.9053C65.9053 9.332 66.0033 9.878 66.0033 10.508C66.0033 11.642 66.0033 17.928 66.0033 18.67C66.0033 19.048 65.9613 19.426 65.8913 19.692ZM59.4093 19.496L61.1173 20.63C62.3213 19.566 63.1893 18.18 63.6233 16.612C63.9873 15.198 64.0293 12.244 64.0293 10.578C64.0293 10.004 64.1273 9.374 64.1273 9.318H62.0693C62.1533 9.668 62.2093 10.032 62.2093 10.606C62.2093 12.286 62.1953 14.946 61.7893 16.136C61.4113 17.34 60.6553 18.628 59.4093 19.496Z" fill="black"/>
<defs>
<filter id="filter0_b_363_4014" x="-2.56317" y="-2.56317" width="81.1263" height="35.1263" filterUnits="userSpaceOnUse" color-interpolation-filters="sRGB">
<feFlood flood-opacity="0" result="BackgroundImageFix"/>
<feGaussianBlur in="BackgroundImage" stdDeviation="1.28158"/>
<feComposite in2="SourceAlpha" operator="in" result="effect1_backgroundBlur_363_4014"/>
<feBlend mode="normal" in="SourceGraphic" in2="effect1_backgroundBlur_363_4014" result="shape"/>
</filter>
<radialGradient id="paint0_radial_363_4014" cx="0" cy="0" r="1" gradientUnits="userSpaceOnUse" gradientTransform="translate(32.9129 61.0652) rotate(-35.0658) scale(73.9877 116.671)">
<stop stop-color="#72FFF9"/>
<stop offset="0.234375" stop-color="#FAFFDA"/>
<stop offset="0.378148" stop-color="#9DD9FB"/>
<stop offset="0.461432" stop-color="#A0FAEA"/>
<stop offset="0.544715" stop-color="#9AA6FF"/>
<stop offset="0.635417" stop-color="#B4D7E6"/>
<stop offset="0.755208" stop-color="#FCCDB9"/>
<stop offset="0.848958" stop-color="#CFF4FF"/>
<stop offset="0.921875" stop-color="#FAFFED"/>
<stop offset="1" stop-color="#40D1FF"/>
</radialGradient>
</defs>
</svg>
