<svg width="31" height="30" viewBox="0 0 31 30" fill="none" xmlns="http://www.w3.org/2000/svg">
<path opacity="0.75" fill-rule="evenodd" clip-rule="evenodd" d="M15.5 30C23.7843 30 30.5 23.2843 30.5 15C30.5 6.71573 23.7843 0 15.5 0C7.21573 0 0.5 6.71573 0.5 15C0.5 23.2843 7.21573 30 15.5 30ZM23.9561 9.68328C24.8186 9.59024 25.6561 9.35133 26.4256 9.01938C25.8422 9.86938 25.1104 10.6263 24.2754 11.2374C24.288 11.4235 24.288 11.6096 24.288 11.7957C24.288 17.4666 19.9726 24 12.0862 24C9.65695 24 7.40118 23.2959 5.5 22.0762C5.84453 22.1164 6.17648 22.129 6.53609 22.129C8.54038 22.129 10.3862 21.45 11.8599 20.2957C9.97633 20.2555 8.39453 19.0207 7.85133 17.3207C8.1179 17.3584 8.38195 17.3861 8.66109 17.3861C9.04586 17.3861 9.43062 17.3333 9.79024 17.2402C7.82618 16.8429 6.35251 15.1152 6.35251 13.0305V12.9777C6.92337 13.297 7.58728 13.4957 8.29142 13.5234C7.13713 12.7513 6.38018 11.4386 6.38018 9.94985C6.38018 9.15266 6.59142 8.42337 6.96361 7.78462C9.07352 10.3874 12.2472 12.0874 15.8056 12.2735C15.7402 11.9541 15.7 11.6222 15.7 11.2902C15.7 8.92633 17.6112 7 19.9877 7C21.2225 7 22.3365 7.51805 23.1212 8.35547C24.0893 8.16938 25.0198 7.80976 25.8422 7.31938C25.5228 8.31524 24.8463 9.15266 23.9561 9.68328Z" fill="white"/>
</svg>
