<svg width="700" height="476" viewBox="0 0 700 476" fill="none" xmlns="http://www.w3.org/2000/svg">
<mask id="mask0_365_5619" style="mask-type:alpha" maskUnits="userSpaceOnUse" x="-180" y="0" width="1061" height="476">
<rect x="-180" width="1060.61" height="476" fill="white"/>
</mask>
<g mask="url(#mask0_365_5619)">
<g filter="url(#filter0_f_365_5619)">
<ellipse cx="384.858" cy="175.376" rx="274.034" ry="151.239" transform="rotate(-6.48121 384.858 175.376)" fill="url(#paint0_radial_365_5619)"/>
</g>
<g filter="url(#filter1_f_365_5619)">
<path d="M475.689 202.151C527.992 193.896 552.886 172.135 599.871 147.717C690.566 100.583 721.567 40.2447 814.808 -1.62969C1005.06 -87.0717 648.639 431.343 445.496 384.131C317.794 354.451 80.6835 134.874 211.513 143.387C263.761 146.786 287.022 176.036 338.089 187.591C390.793 199.517 422.314 210.576 475.689 202.151Z" fill="url(#paint1_linear_365_5619)"/>
</g>
<g filter="url(#filter2_f_365_5619)">
<path d="M33.8284 46.0174C-46.3855 51.2948 -98.7382 80.904 -149.66 149.793C-252.818 289.35 349.894 333.683 265.956 180.364C213.032 83.6934 136.287 39.2766 33.8284 46.0174Z" fill="url(#paint2_radial_365_5619)" fill-opacity="0.58"/>
</g>
</g>
<defs>
<filter id="filter0_f_365_5619" x="-57.6657" y="-147.774" width="885.048" height="646.301" filterUnits="userSpaceOnUse" color-interpolation-filters="sRGB">
<feFlood flood-opacity="0" result="BackgroundImageFix"/>
<feBlend mode="normal" in="SourceGraphic" in2="BackgroundImageFix" result="shape"/>
<feGaussianBlur stdDeviation="84.8485" result="effect1_foregroundBlur_365_5619"/>
</filter>
<filter id="filter1_f_365_5619" x="31.914" y="-152.575" width="978.459" height="681.166" filterUnits="userSpaceOnUse" color-interpolation-filters="sRGB">
<feFlood flood-opacity="0" result="BackgroundImageFix"/>
<feBlend mode="normal" in="SourceGraphic" in2="BackgroundImageFix" result="shape"/>
<feGaussianBlur stdDeviation="70.7071" result="effect1_foregroundBlur_365_5619"/>
</filter>
<filter id="filter2_f_365_5619" x="-331.277" y="-124.345" width="774.978" height="570.72" filterUnits="userSpaceOnUse" color-interpolation-filters="sRGB">
<feFlood flood-opacity="0" result="BackgroundImageFix"/>
<feBlend mode="normal" in="SourceGraphic" in2="BackgroundImageFix" result="shape"/>
<feGaussianBlur stdDeviation="84.8485" result="effect1_foregroundBlur_365_5619"/>
</filter>
<radialGradient id="paint0_radial_365_5619" cx="0" cy="0" r="1" gradientUnits="userSpaceOnUse" gradientTransform="translate(403.961 130.628) rotate(95.567) scale(196.916 356.798)">
<stop stop-color="#2EC0FF"/>
<stop offset="1" stop-color="#16FF8F" stop-opacity="0"/>
</radialGradient>
<linearGradient id="paint1_linear_365_5619" x1="759.24" y1="49.8304" x2="355.841" y2="247.247" gradientUnits="userSpaceOnUse">
<stop stop-color="#FF00E5" stop-opacity="0.05"/>
<stop offset="1" stop-color="#0A1898"/>
</linearGradient>
<radialGradient id="paint2_radial_365_5619" cx="0" cy="0" r="1" gradientUnits="userSpaceOnUse" gradientTransform="translate(57.2113 160.533) rotate(100.234) scale(54.5774 103.375)">
<stop stop-color="#FF31AD"/>
<stop offset="0.990741" stop-color="#0A3542" stop-opacity="0"/>
</radialGradient>
</defs>
</svg>
